<svg preserveAspectRatio="none" width="100%" height="100%" overflow="visible" style="display: block;" viewBox="0 0 16 16" fill="none" xmlns="http://www.w3.org/2000/svg">
<g id="Icon">
<g id="Icon_2">
<path id="Vector" fill-rule="evenodd" clip-rule="evenodd" d="M9.57758 0.653454L15.3465 6.42242C16.2178 7.2937 16.2178 8.70631 15.3465 9.57758L9.57758 15.3465C8.70631 16.2178 7.2937 16.2178 6.42242 15.3465L0.653454 9.57758C-0.217818 8.70631 -0.217818 7.2937 0.653454 6.42242L6.42242 0.653454C7.2937 -0.217818 8.70631 -0.217818 9.57758 0.653454ZM7.21434 1.46829L1.46829 7.21434C1.03438 7.64825 1.03438 8.35175 1.46829 8.78566L7.21434 14.5317C7.64825 14.9656 8.35175 14.9656 8.78566 14.5317L14.5317 8.78566C14.9656 8.35175 14.9656 7.64825 14.5317 7.21434L8.78566 1.46829C8.35175 1.03438 7.64825 1.03438 7.21434 1.46829Z" fill="var(--fill-0, #F7F7F8)"/>
</g>
</g>
</svg>
