<svg preserveAspectRatio="none" width="100%" height="100%" overflow="visible" style="display: block;" viewBox="0 0 11 14" fill="none" xmlns="http://www.w3.org/2000/svg">
<path id="Vector" d="M5.5 8.08579L1 12.5858V1.72971C1 1.48452 1.16481 1.32035 1.34967 1.29481C2.335 1.15866 3.84128 1 5.5 1C7.15872 1 8.665 1.15866 9.65033 1.29481C9.83519 1.32035 10 1.48452 10 1.72971V12.5858L5.5 8.08579ZM9.79289 13.7929C9.9255 13.9255 10.1054 14 10.2929 14C10.6834 14 11 13.6834 11 13.2929V1.72971C11 1.01468 10.4955 0.402082 9.7872 0.304217C8.77277 0.164052 7.21841 0 5.5 0C3.78159 0 2.22723 0.164052 1.2128 0.304217C0.504512 0.402082 0 1.01468 0 1.72971V13.2929C0 13.6834 0.316582 14 0.707107 14C0.894643 14 1.0745 13.9255 1.20711 13.7929L5.5 9.5L9.79289 13.7929Z" fill="var(--fill-0, #F7F7F8)"/>
</svg>
