<svg preserveAspectRatio="none" width="100%" height="100%" overflow="visible" style="display: block;" viewBox="0 0 14 14" fill="none" xmlns="http://www.w3.org/2000/svg">
<g id="Vector">
<path d="M1 3.39263V1C1 0.723858 0.776142 0.5 0.5 0.5C0.223858 0.5 0 0.723858 0 1V4.5C0 4.77614 0.223858 5 0.5 5H4C4.27614 5 4.5 4.77614 4.5 4.5C4.5 4.22386 4.27614 4 4 4H1.80256C2.84035 2.20599 4.7798 1 7 1C10.3137 1 13 3.68629 13 7C13 10.3137 10.3137 13 7 13C3.68629 13 1 10.3137 1 7C1 6.72386 0.776142 6.5 0.5 6.5C0.223858 6.5 0 6.72386 0 7C0 10.866 3.13401 14 7 14C10.866 14 14 10.866 14 7C14 3.13401 10.866 0 7 0C4.45296 0 2.22452 1.36025 1 3.39263Z" fill="var(--fill-0, #F7F7F8)"/>
<path d="M7 3C7.27614 3 7.5 3.22386 7.5 3.5V6.79289L8.85355 8.14645C9.04882 8.34171 9.04882 8.65829 8.85355 8.85355C8.65829 9.04882 8.34171 9.04882 8.14645 8.85355L6.64645 7.35355C6.55268 7.25979 6.5 7.13261 6.5 7V3.5C6.5 3.22386 6.72386 3 7 3Z" fill="var(--fill-0, #F7F7F8)"/>
</g>
</svg>
