<svg preserveAspectRatio="none" width="100%" height="100%" overflow="visible" style="display: block;" viewBox="0 0 16 16" fill="none" xmlns="http://www.w3.org/2000/svg">
<g id="icon-mask">
<g id="placeholder">
<g id="vector">
<path d="M2 4.39263V2C2 1.72386 1.77614 1.5 1.5 1.5C1.22386 1.5 1 1.72386 1 2V5.5C1 5.77614 1.22386 6 1.5 6H5C5.27614 6 5.5 5.77614 5.5 5.5C5.5 5.22386 5.27614 5 5 5H2.80256C3.84035 3.20599 5.7798 2 8 2C11.3137 2 14 4.68629 14 8C14 11.3137 11.3137 14 8 14C4.68629 14 2 11.3137 2 8C2 7.72386 1.77614 7.5 1.5 7.5C1.22386 7.5 1 7.72386 1 8C1 11.866 4.13401 15 8 15C11.866 15 15 11.866 15 8C15 4.13401 11.866 1 8 1C5.45296 1 3.22452 2.36025 2 4.39263Z" fill="var(--fill-0, #F7F7F8)"/>
<path d="M8 4C8.27614 4 8.5 4.22386 8.5 4.5V7.79289L9.85355 9.14645C10.0488 9.34171 10.0488 9.65829 9.85355 9.85355C9.65829 10.0488 9.34171 10.0488 9.14645 9.85355L7.64645 8.35355C7.55268 8.25979 7.5 8.13261 7.5 8V4.5C7.5 4.22386 7.72386 4 8 4Z" fill="var(--fill-0, #F7F7F8)"/>
</g>
</g>
</g>
</svg>
