<svg viewBox="0 0 14.0072 12.5584" fill="none" xmlns="http://www.w3.org/2000/svg" aria-hidden="true">
  <path
    d="M12.0068 0C13.3254 0.000213408 14.2825 1.2542 13.9355 2.52637L12.0273 9.52637L11.9756 9.68652C11.6898 10.4695 10.9429 10.9999 10.0977 11H4.14062L3.98535 11.0059C3.62372 11.0341 3.2753 11.1602 2.97852 11.3721L1.58105 12.3701L1.4541 12.4482C0.807773 12.7826 0 12.3191 0 11.5566V2C0 0.895431 0.895431 0 2 0H12.0068ZM2 1C1.44772 1 1 1.44772 1 2V11.5566L2.39746 10.5586C2.90613 10.1953 3.51557 10.0001 4.14062 10H10.0977C10.5485 9.99989 10.9439 9.69768 11.0625 9.2627L12.9717 2.2627C13.1448 1.62684 12.6659 1.00021 12.0068 1H2Z"
    fill="#F7F7F8"
  />
</svg>
