<svg preserveAspectRatio="none" width="100%" height="100%" overflow="visible" style="display: block;" viewBox="0 0 12 12" fill="none" xmlns="http://www.w3.org/2000/svg">
<g id="icon-mask">
<g id="placeholder">
<path id="vector" d="M3.48483 4.01517C3.33839 3.86872 3.33839 3.63128 3.48483 3.48483C3.63128 3.33839 3.86872 3.33839 4.01516 3.48483L6 5.46967L7.98483 3.48483C8.13128 3.33839 8.36872 3.33839 8.51516 3.48483C8.66161 3.63128 8.66161 3.86872 8.51516 4.01517L6.53033 6L8.51516 7.98484C8.66161 8.13128 8.66161 8.36872 8.51516 8.51516C8.36872 8.66161 8.13128 8.66161 7.98483 8.51516L6 6.53033L4.01516 8.51516C3.86872 8.66161 3.63128 8.66161 3.48483 8.51516C3.33839 8.36872 3.33839 8.13128 3.48483 7.98484L5.46967 6L3.48483 4.01517Z" fill="var(--fill-0, #F7F7F8)"/>
</g>
</g>
</svg>
