<svg preserveAspectRatio="none" width="100%" height="100%" overflow="visible" style="display: block;" viewBox="13.5 5.5 21 21" fill="none" xmlns="http://www.w3.org/2000/svg">
<path id="Union" d="M29.25 11.5V9.25H23.002C22.97 9.30499 22.9328 9.35817 22.8857 9.40527L22.2002 10.0908C21.7782 10.5128 21.2061 10.75 20.6094 10.75H15V19H17.25V15.25C17.25 14.4216 17.9216 13.75 18.75 13.75H25.1162L26.792 11.9717C27.0754 11.6709 27.4705 11.5 27.8838 11.5H29.25ZM18.75 25H33V16.75H27.3906C26.794 16.75 26.2217 16.5127 25.7998 16.0908L24.9697 15.2607C24.9663 15.2573 24.9633 15.2535 24.96 15.25H18.75V25ZM26.4014 14.5713L26.8604 15.0303C27.001 15.1708 27.1918 15.25 27.3906 15.25H33V13H27.8838L26.4014 14.5713ZM15 9.25H20.6094C20.8083 9.25 20.999 9.1709 21.1396 9.03027L21.5977 8.57129L20.1162 7H15V9.25ZM33 11.5C33.8284 11.5 34.5 12.1716 34.5 13V25C34.5 25.8284 33.8284 26.5 33 26.5H18.75C17.9216 26.5 17.25 25.8284 17.25 25V20.5H15C14.1716 20.5 13.5 19.8284 13.5 19V7C13.5 6.17157 14.1716 5.5 15 5.5H20.1162C20.5295 5.5 20.9246 5.6709 21.208 5.97168L22.8838 7.75H29.25C30.0784 7.75 30.75 8.42157 30.75 9.25V11.5H33Z" fill="#1F2024"/>
</svg>
