<svg preserveAspectRatio="none" width="100%" height="100%" overflow="visible" style="display: block;" viewBox="0 0 16 16" fill="none" xmlns="http://www.w3.org/2000/svg">
<g id="Move">
<path id="Union" d="M8.00098 10.1484C8.27669 10.1489 8.50098 10.3726 8.50098 10.6484V13.4043L9.5918 12.3135C9.78705 12.1185 10.1036 12.1184 10.2988 12.3135C10.4938 12.5087 10.4938 12.8253 10.2988 13.0205L8.53125 14.7881C8.23843 15.0808 7.76358 15.0807 7.4707 14.7881L5.70312 13.0205C5.5079 12.8253 5.50796 12.5087 5.70312 12.3135C5.89841 12.1185 6.21498 12.1183 6.41016 12.3135L7.50098 13.4043V10.6484C7.50098 10.3723 7.72483 10.1484 8.00098 10.1484ZM2.98242 5.70215C3.17771 5.50718 3.49429 5.50698 3.68945 5.70215C3.88456 5.89732 3.8844 6.21391 3.68945 6.40918L2.59863 7.5H5.25098C5.52699 7.50014 5.75096 7.72396 5.75098 8C5.75098 8.27606 5.527 8.49986 5.25098 8.5H2.59863L3.68945 9.59082C3.88466 9.78606 3.88464 10.1036 3.68945 10.2988C3.49431 10.4938 3.17768 10.4937 2.98242 10.2988L1.21484 8.53027C0.921951 8.23738 0.92195 7.76262 1.21484 7.46973L2.98242 5.70215ZM12.2725 5.70215C12.4677 5.5069 12.7842 5.50693 12.9795 5.70215L14.748 7.46973C15.0406 7.76259 15.0407 8.23747 14.748 8.53027L12.9795 10.2979C12.7842 10.4929 12.4677 10.4931 12.2725 10.2979C12.0774 10.1026 12.0774 9.78603 12.2725 9.59082L13.3633 8.5H10.75C10.4739 8.5 10.25 8.27614 10.25 8C10.25 7.72386 10.4739 7.5 10.75 7.5H13.3633L12.2725 6.40918C12.0774 6.21403 12.0775 5.89742 12.2725 5.70215ZM7.46973 1.21387C7.76258 0.921058 8.23738 0.921124 8.53027 1.21387L10.2979 2.98145C10.4931 3.1767 10.4931 3.49321 10.2979 3.68848C10.1026 3.88347 9.78599 3.88365 9.59082 3.68848L8.49902 2.59668V5.31543C8.49869 5.59129 8.27496 5.81543 7.99902 5.81543C7.72332 5.81515 7.49936 5.59112 7.49902 5.31543V2.59863L6.40918 3.68848C6.2139 3.88347 5.89732 3.88365 5.70215 3.68848C5.50709 3.49329 5.50719 3.17669 5.70215 2.98145L7.46973 1.21387Z" fill="#1F2024"/>
<path id="Ellipse 1248" d="M9.25 8C9.25 8.69035 8.69035 9.25 8 9.25C7.30964 9.25 6.75 8.69035 6.75 8C6.75 7.30964 7.30964 6.75 8 6.75C8.69035 6.75 9.25 7.30964 9.25 8Z" fill="#1F2024"/>
</g>
</svg>
