<svg preserveAspectRatio="none" width="100%" height="100%" overflow="visible" style="display: block;" viewBox="0 0 13.0507 13.0508" fill="none" xmlns="http://www.w3.org/2000/svg">
<path id="Vector" d="M7.92868 1.17832C9.94835 -0.0180045 11.7159 -0.370924 12.5327 0.433696C13.8409 1.72381 12.2124 5.49742 8.89499 8.86143L8.58249 9.17198C8.18283 9.56157 7.77732 9.92551 7.37253 10.2633C8.15029 10.8089 8.89909 11.2354 9.57663 11.5279C10.272 11.8281 10.8429 11.9663 11.2632 11.9811C11.6817 11.9957 11.8444 11.8888 11.9043 11.8282C11.964 11.7675 12.0688 11.603 12.0483 11.1847C12.0276 10.7646 11.8816 10.1955 11.5717 9.5045C11.4218 9.17003 11.2383 8.81834 11.0239 8.45469C10.9129 8.26628 10.9282 8.02738 11.0683 7.85948C11.2854 7.59951 11.6927 7.62304 11.8657 7.91416C13.0677 9.93893 13.4231 11.7121 12.6167 12.5304C11.3265 13.8385 7.55341 12.2096 4.18943 8.89219L3.87839 8.57969C3.58646 8.28021 3.30881 7.97764 3.04587 7.67442L2.78757 7.37071C2.24134 8.14914 1.81423 8.89867 1.52146 9.57676C1.22122 10.2722 1.08307 10.8435 1.06833 11.2638C1.05374 11.6817 1.16009 11.8443 1.22068 11.9044C1.28117 11.9641 1.44587 12.0689 1.86472 12.0484C2.28476 12.0278 2.85382 11.8822 3.54489 11.5724C3.87782 11.4231 4.22756 11.2403 4.58933 11.027C4.77745 10.916 5.01585 10.9315 5.18357 11.0714C5.4436 11.2884 5.42012 11.6955 5.12888 11.8683C3.10624 13.0679 1.3359 13.4228 0.518527 12.6168L0.459933 12.5543C-0.737544 11.2085 0.892188 7.50091 4.15769 4.18956C4.65866 3.68157 5.16926 3.21148 5.68015 2.78477C4.90153 2.23848 4.15178 1.81143 3.47361 1.51866C2.86498 1.25592 2.35155 1.11764 1.95114 1.07725L1.78659 1.06553C1.3684 1.05097 1.20586 1.15782 1.14597 1.21836C1.08631 1.27891 0.982005 1.44299 1.00241 1.86143C1.02298 2.28145 1.16866 2.85045 1.47849 3.54161C1.64465 3.91221 1.85211 4.30399 2.09763 4.70957C2.23706 4.94002 2.18006 5.2409 1.95993 5.3961C1.72871 5.55903 1.40766 5.49863 1.26071 5.25694C-0.00152362 3.18016 -0.389287 1.35112 0.434055 0.516215L0.496066 0.457622C1.84168 -0.740212 5.55027 0.888738 8.86179 4.1544C9.3698 4.6554 9.83894 5.16688 10.2656 5.67784C10.8112 4.90004 11.2382 4.1513 11.5307 3.47373C11.8309 2.77841 11.9686 2.20746 11.9834 1.78721C11.998 1.36834 11.891 1.20577 11.8305 1.1461C11.7698 1.08639 11.606 0.982113 11.188 1.00254C10.7679 1.02311 10.199 1.16921 9.50778 1.47911C9.17657 1.62761 8.82814 1.80835 8.46823 2.02012C8.27984 2.13097 8.04134 2.11572 7.87351 1.97569C7.61338 1.75842 7.63712 1.35116 7.92868 1.17832ZM6.50437 3.40098C5.96042 3.84416 5.41041 4.34283 4.86911 4.8917C4.3283 5.44012 3.83852 5.9969 3.40329 6.54649C3.84571 7.09002 4.34335 7.63963 4.89157 8.18028C5.44074 8.72183 5.99848 9.2119 6.5488 9.64756C7.09217 9.20487 7.6419 8.70754 8.18259 8.15928C8.72388 7.61038 9.21388 7.05261 9.64939 6.50254C9.20629 5.95851 8.70811 5.40818 8.15915 4.8668C7.61074 4.32599 7.054 3.8362 6.50437 3.40098Z" fill="#202227"/>
</svg>
