<svg preserveAspectRatio="none" width="100%" height="100%" overflow="visible" style="display: block;" viewBox="0 0 5 5" fill="none" xmlns="http://www.w3.org/2000/svg">
<path id="Polygon 41" d="M2.29064 0.0878178C2.30908 0.0352135 2.35874 0 2.41449 0H2.58551C2.64126 0 2.69092 0.0352133 2.70936 0.0878177L3.15597 1.36148C3.23515 1.58729 3.41271 1.76485 3.63852 1.84403L4.91218 2.29064C4.96479 2.30908 5 2.35874 5 2.41449V2.58551C5 2.64126 4.96479 2.69092 4.91218 2.70936L3.63852 3.15597C3.41271 3.23515 3.23515 3.41271 3.15597 3.63852L2.70936 4.91218C2.69092 4.96479 2.64126 5 2.58551 5H2.41449C2.35874 5 2.30908 4.96479 2.29064 4.91218L1.84403 3.63852C1.76485 3.41271 1.58729 3.23515 1.36148 3.15597L0.0878178 2.70936C0.0352135 2.69092 0 2.64126 0 2.58551V2.41449C0 2.35874 0.0352133 2.30908 0.0878176 2.29064L1.36148 1.84403C1.58729 1.76485 1.76485 1.58729 1.84403 1.36148L2.29064 0.0878178Z" fill="#1F2024"/>
</svg>
