<svg preserveAspectRatio="none" width="100%" height="100%" overflow="visible" style="display: block;" viewBox="0 0 4 4" fill="none" xmlns="http://www.w3.org/2000/svg">
<path id="Polygon 40" d="M1.82635 0.0878177C1.8448 0.0352134 1.89446 0 1.9502 0H2.0498C2.10554 0 2.1552 0.0352133 2.17365 0.0878176L2.49972 1.01773C2.5789 1.24354 2.75646 1.4211 2.98227 1.50028L3.91218 1.82635C3.96479 1.8448 4 1.89446 4 1.9502V2.0498C4 2.10554 3.96479 2.1552 3.91218 2.17365L2.98227 2.49972C2.75646 2.5789 2.5789 2.75646 2.49972 2.98227L2.17365 3.91218C2.1552 3.96479 2.10554 4 2.0498 4H1.9502C1.89446 4 1.8448 3.96479 1.82635 3.91218L1.50028 2.98227C1.4211 2.75646 1.24354 2.5789 1.01773 2.49972L0.0878177 2.17365C0.0352134 2.1552 0 2.10554 0 2.0498V1.9502C0 1.89446 0.0352133 1.8448 0.0878176 1.82635L1.01773 1.50028C1.24354 1.4211 1.4211 1.24354 1.50028 1.01773L1.82635 0.0878177Z" fill="#1F2024"/>
</svg>
