<svg preserveAspectRatio="none" width="100%" height="100%" overflow="visible" style="display: block;" viewBox="0 0 16 16" fill="none" xmlns="http://www.w3.org/2000/svg">
<g id="Rotate">
<path id="Ellipse 1248" d="M9.25 8C9.25 8.69035 8.69035 9.25 8 9.25C7.30964 9.25 6.75 8.69035 6.75 8C6.75 7.30964 7.30964 6.75 8 6.75C8.69035 6.75 9.25 7.30964 9.25 8Z" fill="#1F2024"/>
<path id="Union" d="M8 1C10.4959 1 12.6864 2.30635 13.9258 4.27246V2.74902C13.9258 2.47304 14.1498 2.24925 14.4258 2.24902C14.7019 2.24902 14.9258 2.4729 14.9258 2.74902V5.24902C14.9258 5.66321 14.59 5.99902 14.1758 5.99902H11.6768C11.4006 5.99902 11.1768 5.77514 11.1768 5.49902C11.1768 5.22288 11.4006 4.99902 11.6768 4.99902H13.1943C12.1566 3.20673 10.22 2 8 2C4.68629 2 2 4.68629 2 8C2 11.1453 4.42023 13.7254 7.5 13.9795C7.77521 14.0022 8 14.2239 8 14.5C8 14.7761 7.77542 15.0018 7.5 14.9824C3.8674 14.726 1 11.6979 1 8C1 4.13401 4.13401 1 8 1ZM10.5938 13.3359C10.8414 13.214 11.1406 13.3159 11.2627 13.5635C11.3848 13.8111 11.2837 14.1112 11.0361 14.2334C10.9006 14.3002 10.7615 14.3622 10.6201 14.4209C10.4787 14.4796 10.3364 14.5332 10.1934 14.582C9.93202 14.6712 9.64779 14.5318 9.55859 14.2705C9.46965 14.0093 9.60902 13.725 9.87012 13.6357C9.99277 13.5939 10.1158 13.5485 10.2373 13.498C10.3587 13.4476 10.4776 13.3932 10.5938 13.3359ZM12.915 11.2969C13.068 11.0671 13.3786 11.0053 13.6084 11.1582C13.8383 11.3112 13.9011 11.6217 13.748 11.8516C13.58 12.1039 13.3944 12.3462 13.1934 12.5762C13.0115 12.7836 12.696 12.8047 12.4883 12.623C12.2804 12.4413 12.2597 12.1259 12.4414 11.918C12.6135 11.7211 12.7711 11.5131 12.915 11.2969ZM14.4395 7.90137C14.715 7.91943 14.9243 8.15804 14.9062 8.43359C14.8863 8.73837 14.8463 9.04053 14.7871 9.33789C14.7332 9.60852 14.4699 9.78412 14.1992 9.73047C13.9284 9.67657 13.7519 9.41335 13.8057 9.14258C13.8564 8.8878 13.8911 8.62906 13.9082 8.36816C13.9263 8.09272 14.164 7.88348 14.4395 7.90137Z" fill="#1F2024"/>
</g>
</svg>
