<svg preserveAspectRatio="none" width="100%" height="100%" overflow="visible" style="display: block;" viewBox="0 0 20.9993 19.3165" fill="none" xmlns="http://www.w3.org/2000/svg">
<path id="Subtract" fill-rule="evenodd" clip-rule="evenodd" d="M20.9993 17.0665C20.9993 18.3091 19.9919 19.3165 18.7493 19.3165H2.25C1.00736 19.3165 0 18.3091 0 17.0665V9.56698C0 8.42702 0.432639 7.32955 1.21052 6.49625L3.2002 4.36484C4.3589 3.12359 6.31592 3.09057 7.51585 4.29202L8.15784 4.93483C8.38733 5.16461 8.69876 5.29372 9.02351 5.29372C9.44996 5.29372 9.84565 5.07166 10.0678 4.70765L11.8446 1.79646C13.3949 -0.743491 17.144 -0.552636 18.4283 2.13161L20.5586 6.58396C20.8487 7.19032 20.9993 7.85397 20.9993 8.52617V17.0665ZM19.4993 17.0665V8.52617C19.4993 8.07804 19.3989 7.6356 19.2055 7.23136L17.0752 2.77901C16.3046 1.16846 14.0551 1.05395 13.125 2.57792L11.3482 5.48911C10.8536 6.29941 9.97281 6.79372 9.02351 6.79372C8.3006 6.79372 7.60735 6.50631 7.09651 5.99481L6.45451 5.352C5.85455 4.75128 4.87604 4.76779 4.29669 5.38842L2.30702 7.51983C1.78843 8.07536 1.5 8.80701 1.5 9.56698V17.0665C1.5 17.4807 1.83579 17.8165 2.25 17.8165H18.7493C19.1635 17.8165 19.4993 17.4807 19.4993 17.0665Z" fill="#1F2024"/>
</svg>
