<svg preserveAspectRatio="none" width="100%" height="100%" overflow="visible" style="display: block;" viewBox="0 0 20.9993 19.1885" fill="none" xmlns="http://www.w3.org/2000/svg">
<path id="Subtract" d="M1.5 19.1885V13.8393C1.5 13.0794 1.79722 12.3477 2.33162 11.7922L4.38196 9.66076C4.97897 9.04013 5.98731 9.02362 6.60557 9.62435L7.26714 10.2672C7.79356 10.7787 8.50794 11.0661 9.25289 11.0661C10.2311 11.0661 11.1388 10.5718 11.6484 9.76145L13.4794 6.85026C14.4379 5.32629 16.756 5.4408 17.5501 7.05135L20.5189 11.9776C20.7182 12.3818 20.8217 12.8243 20.8217 13.2724L20.3016 18.6953C20.7314 18.2855 20.9993 17.7073 20.9993 17.0665V8.52617C20.9993 7.85397 20.8487 7.19032 20.5586 6.58396L18.4283 2.13161C17.144 -0.552636 13.3949 -0.743491 11.8446 1.79646L10.0678 4.70765C9.84565 5.07166 9.44996 5.29372 9.02351 5.29372C8.69876 5.29372 8.38733 5.16461 8.15784 4.93483L7.51585 4.29202C6.31592 3.09057 4.3589 3.12359 3.2002 4.36484L1.21052 6.49625C0.432639 7.32955 0 8.42702 0 9.56698V17.0665C0 18.0462 0.626106 18.8796 1.5 19.1885Z" fill="#0FB369"/>
</svg>
