<svg preserveAspectRatio="none" width="100%" height="100%" overflow="visible" style="display: block;" viewBox="0 0 19.4619 21" fill="none" xmlns="http://www.w3.org/2000/svg">
<g id="Union">
<path d="M7.57715 12.0039C7.95511 12.0425 8.25 12.3618 8.25 12.75C8.24994 13.1381 7.95508 13.4575 7.57715 13.4961L7.5 13.5H4.5C4.08583 13.5 3.75007 13.1642 3.75 12.75C3.75 12.3358 4.08579 12 4.5 12H7.5L7.57715 12.0039Z" fill="#1F2024"/>
<path d="M11.3271 9.00391C11.7051 9.04253 12 9.36184 12 9.75C11.9999 10.1381 11.7051 10.4575 11.3271 10.4961L11.25 10.5H4.5C4.08583 10.5 3.75007 10.1642 3.75 9.75C3.75 9.33579 4.08579 9 4.5 9H11.25L11.3271 9.00391Z" fill="#1F2024"/>
<path d="M11.3271 6.00391C11.7051 6.04253 12 6.36184 12 6.75C11.9999 7.13811 11.7051 7.45748 11.3271 7.49609L11.25 7.5H4.5C4.08583 7.5 3.75007 7.16416 3.75 6.75C3.75 6.33579 4.08579 6 4.5 6H11.25L11.3271 6.00391Z" fill="#1F2024"/>
<path fill-rule="evenodd" clip-rule="evenodd" d="M16.874 0.000976562C18.3067 0.020834 19.4619 1.18765 19.4619 2.625V5.25C19.4618 6.07837 18.7903 6.75 17.9619 6.75H15.75V18C15.7499 19.6568 14.4068 21 12.75 21H3C1.34319 21 6.59698e-05 19.6568 0 18V3.22168C0 2.70073 0.135596 2.18795 0.393555 1.73535L0.519531 1.51465L0.625 1.34277C1.17799 0.507894 2.11571 4.02758e-05 3.12598 0H16.875L16.874 0.000976562ZM3.12598 1.5C2.65466 1.50004 2.21493 1.72112 1.93359 2.08984L1.82324 2.25684L1.69727 2.47852C1.5683 2.7048 1.5 2.96122 1.5 3.22168V18C1.50007 18.8284 2.17161 19.5 3 19.5H12.75C13.5784 19.5 14.2499 18.8284 14.25 18V1.5H3.12598ZM16.8369 1.5C16.315 1.50009 15.877 1.85579 15.75 2.33789V5.25H17.9619V2.625C17.9619 2.00368 17.4582 1.5 16.8369 1.5Z" fill="#1F2024"/>
</g>
</svg>
