<svg preserveAspectRatio="none" width="100%" height="100%" overflow="visible" style="display: block;" viewBox="0 0 21 21" fill="none" xmlns="http://www.w3.org/2000/svg">
<g id="Union">
<path d="M0 1.125C0 0.50368 0.50368 0 1.125 0H2.625C3.11483 0 3.53155 0.313053 3.68599 0.75H6.00195C6.41617 0.75 6.75195 1.08579 6.75195 1.5C6.75195 1.91421 6.41617 2.25 6.00195 2.25H3.75V2.625C3.75 3.24632 3.24632 3.75 2.625 3.75H2.25195V6C2.25195 6.41421 1.91617 6.75 1.50195 6.75C1.08774 6.75 0.751953 6.41421 0.751953 6V3.68667C0.313986 3.53279 0 3.11556 0 2.625V1.125Z" fill="#1F2024"/>
<path d="M9.00195 2.25C8.58774 2.25 8.25195 1.91421 8.25195 1.5C8.25195 1.08579 8.58774 0.75 9.00195 0.75H12.002C12.4162 0.75 12.752 1.08579 12.752 1.5C12.752 1.91421 12.4162 2.25 12.002 2.25H9.00195Z" fill="#1F2024"/>
<path d="M19.502 6.75C19.0877 6.75 18.752 6.41421 18.752 6V3.75H18.375C17.7537 3.75 17.25 3.24632 17.25 2.625V2.25H15.002C14.5877 2.25 14.252 1.91421 14.252 1.5C14.252 1.08579 14.5877 0.75 15.002 0.75H17.314C17.4685 0.313053 17.8852 0 18.375 0H19.875C20.4963 0 21 0.50368 21 1.125V2.625C21 3.1141 20.6879 3.5303 20.252 3.68529V6C20.252 6.41421 19.9162 6.75 19.502 6.75Z" fill="#1F2024"/>
<path d="M19.502 12.75C19.0877 12.75 18.752 12.4142 18.752 12V9C18.752 8.58579 19.0877 8.25 19.502 8.25C19.9162 8.25 20.252 8.58579 20.252 9V12C20.252 12.4142 19.9162 12.75 19.502 12.75Z" fill="#1F2024"/>
<path d="M14.252 19.5C14.252 19.0858 14.5877 18.75 15.002 18.75H17.25V18.375C17.25 17.7537 17.7537 17.25 18.375 17.25H18.752V15C18.752 14.5858 19.0877 14.25 19.502 14.25C19.9162 14.25 20.252 14.5858 20.252 15V17.3147C20.6879 17.4697 21 17.8859 21 18.375V19.875C21 20.4963 20.4963 21 19.875 21H18.375C17.8852 21 17.4685 20.6869 17.314 20.25H15.002C14.5877 20.25 14.252 19.9142 14.252 19.5Z" fill="#1F2024"/>
<path d="M8.25195 19.5C8.25195 19.0858 8.58774 18.75 9.00195 18.75H12.002C12.4162 18.75 12.752 19.0858 12.752 19.5C12.752 19.9142 12.4162 20.25 12.002 20.25H9.00195C8.58774 20.25 8.25195 19.9142 8.25195 19.5Z" fill="#1F2024"/>
<path d="M1.50195 14.25C1.91617 14.25 2.25195 14.5858 2.25195 15V17.25H2.625C3.24632 17.25 3.75 17.7537 3.75 18.375V18.75H6.00195C6.41617 18.75 6.75195 19.0858 6.75195 19.5C6.75195 19.9142 6.41617 20.25 6.00195 20.25H3.68599C3.53155 20.6869 3.11483 21 2.625 21H1.125C0.50368 21 0 20.4963 0 19.875V18.375C0 17.8844 0.313986 17.4672 0.751953 17.3133V15C0.751953 14.5858 1.08774 14.25 1.50195 14.25Z" fill="#1F2024"/>
<path d="M1.50195 8.25C1.91617 8.25 2.25195 8.58579 2.25195 9V12C2.25195 12.4142 1.91617 12.75 1.50195 12.75C1.08774 12.75 0.751953 12.4142 0.751953 12V9C0.751953 8.58579 1.08774 8.25 1.50195 8.25Z" fill="#1F2024"/>
<path d="M8.35742 9.375C8.35742 8.75368 8.8611 8.25 9.48242 8.25H15.4824C16.1037 8.25 16.6074 8.75368 16.6074 9.375V15.375C16.6074 15.9963 16.1037 16.5 15.4824 16.5H9.48242C8.8611 16.5 8.35742 15.9963 8.35742 15.375V9.375Z" fill="#1F2024"/>
</g>
</svg>
