<svg preserveAspectRatio="none" width="100%" height="100%" overflow="visible" style="display: block;" viewBox="0 0 21 21" fill="none" xmlns="http://www.w3.org/2000/svg">
<path id="Union" d="M6.375 0C6.99632 0 7.5 0.50368 7.5 1.125V6.375C7.5 6.95741 7.05742 7.43643 6.49023 7.49414L6.375 7.5H4.5V11.25H16.5V10.875C16.5 10.2537 17.0037 9.75 17.625 9.75H19.875C20.4963 9.75 21 10.2537 21 10.875V13.125C21 13.7463 20.4963 14.25 19.875 14.25H17.625C17.0037 14.25 16.5 13.7463 16.5 13.125V12.75H4.5V18H16.5V17.625C16.5 17.0037 17.0037 16.5 17.625 16.5H19.875C20.4963 16.5 21 17.0037 21 17.625V19.875C21 20.4963 20.4963 21 19.875 21H17.625C17.0037 21 16.5 20.4963 16.5 19.875V19.5H3.75C3.33579 19.5 3 19.1642 3 18.75V7.5H1.125L1.00977 7.49414C0.480468 7.44029 0.0597138 7.01953 0.00585938 6.49023L0 6.375V1.125C0 0.50368 0.50368 2.41596e-08 1.125 0H6.375ZM1.5 6H6V1.5H1.5V6ZM20.25 3C20.6642 3 21 3.33579 21 3.75C21 4.16421 20.6642 4.5 20.25 4.5H10.5C10.0858 4.5 9.75 4.16421 9.75 3.75C9.75 3.33579 10.0858 3 10.5 3H20.25Z" fill="#1F2024"/>
</svg>
