<svg preserveAspectRatio="none" width="100%" height="100%" overflow="visible" style="display: block;" viewBox="0 0 15 14" fill="none" xmlns="http://www.w3.org/2000/svg">
<path id="Union" d="M13 0C14.1046 0 15 0.895431 15 2V3C15 4.03565 14.2128 4.887 13.2041 4.98926L13 5H12L11.7959 4.98926C11.2307 4.93195 10.7366 4.63832 10.4102 4.20996L5.11035 7.00098L10.4102 9.78906C10.7756 9.31007 11.351 9 12 9H13C14.1046 9 15 9.89543 15 11V12C15 13.0357 14.2128 13.887 13.2041 13.9893L13 14H12L11.7959 13.9893C10.8543 13.8938 10.1062 13.1457 10.0107 12.2041L10 12V11.2695L4.73145 8.49609C4.41809 9.03939 3.85895 9.42287 3.2041 9.48926L3 9.5H2L1.7959 9.48926C0.854346 9.3938 0.1062 8.64565 0.0107422 7.7041L0 7.5V6.5C0 5.39543 0.895431 4.5 2 4.5H3C3.74149 4.5 4.38703 4.90449 4.73242 5.50391L10 2.73145V2C10 0.895431 10.8954 1.61064e-08 12 0H13ZM12 10.5C11.7239 10.5 11.5 10.7239 11.5 11V12C11.5 12.2761 11.7239 12.5 12 12.5H13C13.2761 12.5 13.5 12.2761 13.5 12V11C13.5 10.7239 13.2761 10.5 13 10.5H12ZM2 6C1.72386 6 1.5 6.22386 1.5 6.5V7.5C1.5 7.77614 1.72386 8 2 8H3C3.27614 8 3.5 7.77614 3.5 7.5V6.5C3.5 6.22386 3.27614 6 3 6H2ZM12 1.5C11.7239 1.5 11.5 1.72386 11.5 2V3C11.5 3.27614 11.7239 3.5 12 3.5H13C13.2761 3.5 13.5 3.27614 13.5 3V2C13.5 1.72386 13.2761 1.5 13 1.5H12Z" fill="#1F2024"/>
</svg>
