<svg preserveAspectRatio="none" width="100%" height="100%" overflow="visible" style="display: block;" viewBox="0 0 16.8295 19.9336" fill="none" xmlns="http://www.w3.org/2000/svg">
<g id="Union">
<path d="M10.9467 0C14.431 1.70854 16.8295 5.29115 16.8295 9.43359C16.8294 15.2325 12.1285 19.9336 6.32952 19.9336C4.05464 19.9335 1.94833 19.2099 0.228934 17.9805L0.89202 16.8936C4.29591 17.7667 8.42463 15.6851 10.7377 11.6787C11.0933 11.0628 11.3862 10.4317 11.6215 9.79688C11.3422 9.90586 11.0137 9.84221 10.7983 9.6084C10.601 9.39435 10.5551 9.35948 10.3344 9.14844C10.035 8.86219 10.0247 8.38728 10.311 8.08789C10.5972 7.78861 11.0722 7.77825 11.3715 8.06445C11.6143 8.29652 11.6815 8.35481 11.9008 8.59277C11.9277 8.62194 11.9517 8.65261 11.9731 8.68457C12.7476 5.72061 12.2517 2.78271 10.6225 0.865234L10.9467 0Z" fill="#BBC2D1"/>
<path d="M7.22014 5.93359C7.43552 5.57978 7.89758 5.46822 8.25139 5.68359C8.39 5.76797 8.52844 5.85446 8.66643 5.94336C8.80463 6.03239 8.82215 6.07064 8.95647 6.16211C9.29871 6.39525 9.38674 6.86178 9.15374 7.2041C8.92059 7.54646 8.45411 7.63548 8.11175 7.40234C7.98798 7.31806 7.9814 7.28622 7.85393 7.2041C7.72664 7.1221 7.59885 7.04259 7.47112 6.96484C7.11731 6.74947 7.00478 6.28741 7.22014 5.93359Z" fill="#BBC2D1"/>
<path d="M3.74065 4.49512C3.87032 4.10174 4.29454 3.88795 4.68792 4.01758C4.99539 4.11893 5.14054 4.16576 5.45257 4.29102C5.83694 4.44531 6.0238 4.88222 5.86956 5.2666C5.7153 5.65089 5.27829 5.83765 4.89397 5.68359C4.6105 5.5698 4.49477 5.53355 4.21819 5.44238C3.82494 5.31268 3.61113 4.88841 3.74065 4.49512Z" fill="#BBC2D1"/>
<path d="M1.53362 3.4082C1.94674 3.4358 2.25926 3.79287 2.23186 4.20605C2.20431 4.61922 1.84722 4.9317 1.43401 4.9043C1.13573 4.88452 1.06065 4.88824 0.79534 4.9043C0.381884 4.92932 0.0264211 4.61463 0.00139474 4.20117C-0.023629 3.78772 0.291062 3.43225 0.70452 3.40723C1.03898 3.38699 1.17799 3.38462 1.53362 3.4082Z" fill="#BBC2D1"/>
</g>
</svg>
