<svg preserveAspectRatio="none" width="100%" height="100%" overflow="visible" style="display: block;" viewBox="13.5 5.5 21 21" fill="none" xmlns="http://www.w3.org/2000/svg">
<path d="M32.4805 5.51172C33.6148 5.62714 34.5 6.58517 34.5 7.75V21.25C34.5 22.4926 33.4926 23.5 32.25 23.5H19.5C18.2574 23.5 17.25 22.4926 17.25 21.25V7.75C17.25 6.58517 18.1352 5.62714 19.2695 5.51172L19.5 5.5H32.25L32.4805 5.51172ZM19.5 7C19.0858 7 18.75 7.33579 18.75 7.75V21.25C18.75 21.6642 19.0858 22 19.5 22H32.25C32.6642 22 33 21.6642 33 21.25V7.75C33 7.33579 32.6642 7 32.25 7H19.5ZM22.125 15.25C22.7463 15.25 23.25 15.7537 23.25 16.375V17.125C23.25 17.7463 22.7463 18.25 22.125 18.25H21.375C20.7537 18.25 20.25 17.7463 20.25 17.125V16.375C20.25 15.7537 20.7537 15.25 21.375 15.25H22.125ZM30 16C30.4142 16 30.75 16.3358 30.75 16.75C30.75 17.1642 30.4142 17.5 30 17.5H25.5C25.0858 17.5 24.75 17.1642 24.75 16.75C24.75 16.3358 25.0858 16 25.5 16H30ZM22.125 10C22.7463 10 23.25 10.5037 23.25 11.125V11.875C23.25 12.4963 22.7463 13 22.125 13H21.375C20.7537 13 20.25 12.4963 20.25 11.875V11.125C20.25 10.5037 20.7537 10 21.375 10H22.125ZM30 10.75C30.4142 10.75 30.75 11.0858 30.75 11.5C30.75 11.9142 30.4142 12.25 30 12.25H25.5C25.0858 12.25 24.75 11.9142 24.75 11.5C24.75 11.0858 25.0858 10.75 25.5 10.75H30Z" fill="#1F2024"/>
</svg>
