<svg preserveAspectRatio="none" width="100%" height="100%" overflow="visible" style="display: block;" viewBox="0 0 9 20.9766" fill="none" xmlns="http://www.w3.org/2000/svg">
<path id="Union" d="M5.06543 0C5.43317 0.000158802 5.77451 0.179705 5.9834 0.474609L6.06445 0.608398L7.73828 3.84473C8.00943 4.36947 7.82763 5.01494 7.32324 5.32227L6.75 5.6709V11.25H8.25C8.66421 11.25 9 11.5858 9 12C9 12.4142 8.66421 12.75 8.25 12.75H7.57129L7.98633 17.3057C8.16949 19.3156 6.51608 20.9764 4.5 20.9766C2.48381 20.9766 0.829548 19.3157 1.0127 17.3057L1.42871 12.75H0.75C0.335786 12.75 0 12.4142 0 12C0 11.5858 0.335786 11.25 0.75 11.25H2.25V5.68164L1.62109 5.31836C1.12302 5.0301 0.92301 4.41237 1.15723 3.88672L2.5918 0.666992L2.66895 0.521484C2.87325 0.199906 3.23065 0 3.61914 0H5.06543ZM2.50684 17.4414C2.41091 18.4936 3.28432 19.4766 4.5 19.4766C5.71554 19.4764 6.58909 18.4936 6.49316 17.4414L6.06543 12.75H2.93457L2.50684 17.4414ZM2.66504 4.18848L3.18945 4.49219C3.53651 4.6933 3.74985 5.06469 3.75 5.46582V11.25H5.25V5.46094C5.25 5.06851 5.45495 4.7042 5.79004 4.5L6.24512 4.22266L4.83691 1.5H3.8623L2.66504 4.18848Z" fill="#1F2024"/>
</svg>
