<svg preserveAspectRatio="none" width="100%" height="100%" overflow="visible" style="display: block;" viewBox="0 0 13 13" fill="none" xmlns="http://www.w3.org/2000/svg">
<path id="Union" d="M11.6533 0.0078125C12.4097 0.0846098 13 0.723336 13 1.5V9L12.9922 9.15332C12.9205 9.85931 12.3593 10.4205 11.6533 10.4922L11.5 10.5H7V11.5H8.75C9.16421 11.5 9.5 11.8358 9.5 12.25C9.5 12.6642 9.16421 13 8.75 13H4.25C3.83579 13 3.5 12.6642 3.5 12.25C3.5 11.8358 3.83579 11.5 4.25 11.5H5.5V10.5H1.5L1.34668 10.4922C0.64069 10.4205 0.0794915 9.85931 0.0078125 9.15332L0 9V1.5C0 0.671573 0.671573 4.0266e-09 1.5 0H11.5L11.6533 0.0078125ZM1.5 9H11.5V1.5H1.5V9ZM9.625 5C9.83211 5 10 5.16789 10 5.375V7.625C10 7.83211 9.83211 8 9.625 8H2.875C2.66789 8 2.5 7.83211 2.5 7.625V5.375C2.5 5.16789 2.66789 5 2.875 5H9.625ZM6.25 2.5C6.66421 2.5 7 2.83579 7 3.25C7 3.66421 6.66421 4 6.25 4H3.25C2.83579 4 2.5 3.66421 2.5 3.25C2.5 2.83579 2.83579 2.5 3.25 2.5H6.25Z" fill="#3C64FA"/>
</svg>
