<svg preserveAspectRatio="none" width="100%" height="100%" overflow="visible" style="display: block;" viewBox="0 0 12.0002 14.0348" fill="none" xmlns="http://www.w3.org/2000/svg">
<g id="Union">
<path d="M4.99994 0.5C4.99994 0.223858 5.2238 0 5.49994 0H6.49994C6.77608 0 6.99994 0.223858 6.99994 0.5V0.548812C8.62792 0.746632 9.99203 1.929 10.3966 3.55229L11.9853 9.92734C12.0491 10.1835 11.9028 10.4452 11.6511 10.5249L11.6494 10.5254L11.6471 10.5261L11.641 10.528L11.622 10.5337C11.6062 10.5382 11.5845 10.5444 11.5564 10.5518C11.5003 10.5668 11.4189 10.5871 11.3103 10.6109C11.0933 10.6585 10.7674 10.7202 10.3174 10.7813C9.41738 10.9035 8.0197 11.0234 6.0001 11.0234C3.98049 11.0234 2.58282 10.9035 1.68283 10.7813C1.23277 10.7202 0.906939 10.6585 0.689856 10.6109C0.581307 10.5871 0.499927 10.5668 0.443781 10.5518C0.415708 10.5444 0.393941 10.5382 0.378241 10.5337L0.359209 10.528L0.353048 10.5261L0.350796 10.5254L0.349876 10.5251C0.349876 10.5251 0.349093 10.5249 0.500087 10.0483L0.349093 10.5249C0.0974168 10.4452 -0.048905 10.1835 0.0149335 9.92734L1.60363 3.55229C2.00813 1.9291 3.3721 0.746782 4.99994 0.54885V0.5Z" fill="#1F2024"/>
<path d="M8.24933 11.9972C8.60734 12.2055 8.72867 12.6646 8.52033 13.0226C8.15565 13.6493 7.48528 14.0348 6.76023 14.0348H5.31349C4.56985 14.0348 3.86733 13.6936 3.4076 13.1091C3.15152 12.7835 3.20786 12.312 3.53343 12.0559C3.85901 11.7998 4.33053 11.8562 4.5866 12.1817C4.76194 12.4047 5.02987 12.5348 5.31349 12.5348H6.76023C6.95122 12.5348 7.12781 12.4332 7.22388 12.2682C7.43221 11.9102 7.89133 11.7888 8.24933 11.9972Z" fill="#1F2024"/>
</g>
</svg>
