<svg preserveAspectRatio="none" width="100%" height="100%" overflow="visible" style="display: block;" viewBox="0 0 21 18" fill="none" xmlns="http://www.w3.org/2000/svg">
<path id="Union" fill-rule="evenodd" clip-rule="evenodd" d="M19.0176 13.5H20.25L20.3271 13.5039C20.7051 13.5425 21 13.8618 21 14.25V17.25L20.9961 17.3271C20.9601 17.6798 20.6798 17.9601 20.3271 17.9961L20.25 18H17.25L17.1729 17.9961C16.8202 17.9601 16.5399 17.6798 16.5039 17.3271L16.5 17.25V16.5H4.5V17.25L4.49609 17.3271C4.46006 17.6798 4.17975 17.9601 3.82715 17.9961L3.75 18H0.75L0.672852 17.9961C0.320245 17.9601 0.0399361 17.6798 0.00390625 17.3271L0 17.25V14.25C4.5281e-08 13.8618 0.294882 13.5425 0.672852 13.5039L0.75 13.5H1.97949L3.98145 4.5H3.75L3.67285 4.49609C3.32025 4.46006 3.03994 4.17975 3.00391 3.82715L3 3.75V0.75C3 0.361834 3.29488 0.0425278 3.67285 0.00390625L3.75 0H6.75L6.82715 0.00390625C7.20512 0.0425278 7.5 0.361834 7.5 0.75V1.5H13.5V0.75C13.5 0.361834 13.7949 0.0425278 14.1729 0.00390625L14.25 0H17.25L17.3271 0.00390625C17.7051 0.0425278 18 0.361834 18 0.75V3.75L17.9961 3.82715C17.9601 4.17975 17.6798 4.46006 17.3271 4.49609L17.25 4.5H17.0186L19.0176 13.5ZM14.25 4.5L14.1729 4.49609C13.8202 4.46006 13.5399 4.17975 13.5039 3.82715L13.5 3.75V3H7.5V3.75L7.49609 3.82715C7.46006 4.17975 7.17975 4.46006 6.82715 4.49609L6.75 4.5H5.51855L3.51758 13.5H3.75L3.82715 13.5039C4.20512 13.5425 4.5 13.8618 4.5 14.25V15H16.5V14.25C16.5 13.8618 16.7949 13.5425 17.1729 13.5039L17.25 13.5H17.4805L15.4814 4.5H14.25ZM1.5 16.5H3V15H1.5V16.5ZM18 16.5H19.5V15H18V16.5ZM4.5 3H6V1.5H4.5V3ZM15 3H16.5V1.5H15V3Z" fill="#1F2024"/>
</svg>
