<svg preserveAspectRatio="none" width="100%" height="100%" overflow="visible" style="display: block;" viewBox="0 0 20.0802 22.4904" fill="none" xmlns="http://www.w3.org/2000/svg">
<path id="Union" fill-rule="evenodd" clip-rule="evenodd" d="M2.81271 5.55671C2.56281 5.70098 2.56268 6.06163 2.81247 6.20609L9.66732 10.1704C9.89979 10.3048 10.1864 10.3047 10.4188 10.1701L17.2646 6.20399C17.5141 6.0594 17.5139 5.69896 17.2641 5.55475L10.4151 1.60048C10.183 1.46651 9.89714 1.46651 9.66509 1.60048L2.81271 5.55671ZM18.5802 7.82598C18.5802 7.53706 18.2672 7.35667 18.0172 7.50151L11.1642 11.4718C10.9327 11.6059 10.7901 11.8532 10.7901 12.1208V20.0239C10.7901 20.3126 11.1026 20.493 11.3526 20.3487L18.2052 16.3924C18.4372 16.2584 18.5802 16.0108 18.5802 15.7428V7.82598ZM8.72763 20.3487C8.97763 20.4931 9.29013 20.3126 9.29013 20.024V12.1177C9.29013 11.8499 9.14739 11.6025 8.9156 11.4684L2.06274 7.50528C1.81274 7.3607 1.5 7.54111 1.5 7.8299V15.7428C1.5 16.0108 1.64295 16.2584 1.875 16.3924L8.72763 20.3487ZM11.1651 0.301443C10.4689 -0.100481 9.61124 -0.100481 8.91509 0.301443L1.125 4.79905C0.428847 5.20098 0 5.94376 0 6.74761V15.7428C0 16.5467 0.428847 17.2895 1.125 17.6914L8.91509 22.189C9.61124 22.5909 10.4689 22.5909 11.1651 22.189L18.9552 17.6914C19.6513 17.2895 20.0802 16.5467 20.0802 15.7428V6.74761C20.0802 5.94376 19.6513 5.20098 18.9552 4.79905L11.1651 0.301443Z" fill="#1F2024"/>
</svg>
