<svg preserveAspectRatio="none" width="100%" height="100%" overflow="visible" style="display: block;" viewBox="0 0 21.0007 21.1086" fill="none" xmlns="http://www.w3.org/2000/svg">
<g id="Union">
<path fill-rule="evenodd" clip-rule="evenodd" d="M5.99962 3.04802C5.97311 4.70467 4.60864 6.02614 2.95199 5.99962C1.29535 5.97311 -0.0261257 4.60864 0.000392218 2.95199C0.0269102 1.29535 1.39138 -0.0261257 3.04802 0.000392218C4.70467 0.0269102 6.02614 1.39138 5.99962 3.04802ZM4.49982 3.02402C4.48656 3.85234 3.80432 4.51308 2.976 4.49982C2.14768 4.48656 1.48694 3.80432 1.5002 2.976C1.51346 2.14768 2.19569 1.48694 3.02402 1.5002C3.85234 1.51346 4.51308 2.19569 4.49982 3.02402Z" fill="#1F2024"/>
<path fill-rule="evenodd" clip-rule="evenodd" d="M17.9527 9.60973C19.6094 9.63625 20.9738 8.31477 21.0004 6.65813C21.0269 5.00149 19.7054 3.63702 18.0488 3.6105C16.3921 3.58398 15.0276 4.90546 15.0011 6.5621C14.9746 8.21874 16.2961 9.58321 17.9527 9.60973ZM17.9767 8.10992C18.8051 8.12318 19.4873 7.46244 19.5005 6.63412C19.5138 5.8058 18.8531 5.12357 18.0247 5.11031C17.1964 5.09705 16.5142 5.75779 16.5009 6.58611C16.4877 7.41443 17.1484 8.09666 17.9767 8.10992Z" fill="#1F2024"/>
<path fill-rule="evenodd" clip-rule="evenodd" d="M7.44755 21.1082C9.10419 21.1347 10.4687 19.8133 10.4952 18.1566C10.5217 16.5 9.20023 15.1355 7.54358 15.109C5.88694 15.0825 4.52247 16.4039 4.49595 18.0606C4.46943 19.7172 5.79091 21.0817 7.44755 21.1082ZM7.47156 19.6084C8.29988 19.6217 8.98212 18.9609 8.99538 18.1326C9.00863 17.3043 8.3479 16.6221 7.51958 16.6088C6.69125 16.5955 6.00902 17.2563 5.99576 18.0846C5.9825 18.9129 6.64324 19.5952 7.47156 19.6084Z" fill="#1F2024"/>
</g>
</svg>
