<svg preserveAspectRatio="none" width="100%" height="100%" overflow="visible" style="display: block;" viewBox="0 0 9.76758 20.821" fill="none" xmlns="http://www.w3.org/2000/svg">
<g id="Union">
<mask id="path-1-inside-1_0_13776" fill="white">
<path d="M5.87598 0.750713C5.87598 0.222301 6.40748 -0.140405 6.89941 0.0524711L9.29102 0.989971C9.57816 1.10259 9.76747 1.3798 9.76758 1.68821V6.80345C9.76749 7.09502 9.59832 7.36008 9.33398 7.48314L7.3252 8.41771V18.571C7.32498 19.8135 6.3177 20.821 5.0752 20.821H4.69238C3.44987 20.821 2.4426 19.8135 2.44238 18.571V8.41771L0.433594 7.48314C0.169225 7.36013 0.000134873 7.09502 0 6.80345V1.68821C6.31491e-05 1.37974 0.189374 1.10259 0.476562 0.989971L2.86816 0.0524711C3.36008 -0.14034 3.8916 0.22233 3.8916 0.750713V3.95384L4.88379 4.3679L5.87598 3.95384V0.750713Z"/>
</mask>
<path d="M6.89941 0.0524711L6.35188 1.44897L6.35198 1.44901L6.89941 0.0524711ZM9.29102 0.989971L9.83869 -0.406472L9.83845 -0.406565L9.29102 0.989971ZM9.76758 1.68821H11.2676V1.68768L9.76758 1.68821ZM9.76758 6.80345L11.2676 6.80388V6.80345H9.76758ZM9.33398 7.48314L9.96672 8.84315L9.96702 8.84301L9.33398 7.48314ZM7.3252 8.41771L6.69246 7.05769L5.8252 7.46118V8.41771H7.3252ZM7.3252 18.571L8.8252 18.5713V18.571H7.3252ZM2.44238 18.571H0.942383V18.5713L2.44238 18.571ZM2.44238 8.41771H3.94238V7.46118L3.07512 7.05769L2.44238 8.41771ZM0.433594 7.48314L-0.199183 8.84313L-0.199141 8.84315L0.433594 7.48314ZM0 6.80345H-1.5L-1.5 6.80414L0 6.80345ZM0 1.68821L-1.5 1.68791V1.68821H0ZM0.476562 0.989971L-0.070875 -0.406565L-0.0710696 -0.406488L0.476562 0.989971ZM2.86816 0.0524711L2.32077 -1.34408L2.32073 -1.34406L2.86816 0.0524711ZM3.8916 3.95384H2.3916V4.95323L3.3139 5.33813L3.8916 3.95384ZM4.88379 4.3679L4.30609 5.75219L4.88379 5.99328L5.46149 5.75219L4.88379 4.3679ZM5.87598 3.95384L6.45367 5.33813L7.37598 4.95323V3.95384H5.87598ZM5.87598 0.750713H7.37598C7.37598 1.27846 6.84444 1.64209 6.35188 1.44897L6.89941 0.0524711L7.44695 -1.34403C5.97051 -1.9229 4.37598 -0.833857 4.37598 0.750713H5.87598ZM6.89941 0.0524711L6.35198 1.44901L8.74358 2.38651L9.29102 0.989971L9.83845 -0.406565L7.44685 -1.34406L6.89941 0.0524711ZM9.29102 0.989971L8.74334 2.38641C8.45683 2.27405 8.26769 1.99785 8.26758 1.68875L9.76758 1.68821L11.2676 1.68768C11.2672 0.761743 10.6995 -0.0688764 9.83869 -0.406472L9.29102 0.989971ZM9.76758 1.68821H8.26758V6.80345H9.76758H11.2676V1.68821H9.76758ZM9.76758 6.80345L8.26758 6.80302C8.26766 6.51096 8.43705 6.24611 8.70094 6.12326L9.33398 7.48314L9.96702 8.84301C10.7596 8.47406 11.2673 7.67908 11.2676 6.80388L9.76758 6.80345ZM9.33398 7.48314L8.70125 6.12312L6.69246 7.05769L7.3252 8.41771L7.95793 9.77772L9.96672 8.84315L9.33398 7.48314ZM7.3252 8.41771H5.8252V18.571H7.3252H8.8252V8.41771H7.3252ZM7.3252 18.571L5.8252 18.5708C5.82512 18.9853 5.48902 19.321 5.0752 19.321V20.821V22.321C7.14639 22.321 8.82484 20.6417 8.8252 18.5713L7.3252 18.571ZM5.0752 20.821V19.321H4.69238V20.821V22.321H5.0752V20.821ZM4.69238 20.821V19.321C4.27856 19.321 3.94245 18.9853 3.94238 18.5708L2.44238 18.571L0.942383 18.5713C0.942741 20.6417 2.62119 22.321 4.69238 22.321V20.821ZM2.44238 18.571H3.94238V8.41771H2.44238H0.942383V18.571H2.44238ZM2.44238 8.41771L3.07512 7.05769L1.06633 6.12312L0.433594 7.48314L-0.199141 8.84315L1.80965 9.77772L2.44238 8.41771ZM0.433594 7.48314L1.06637 6.12314C1.33087 6.24621 1.49987 6.51133 1.5 6.80275L0 6.80345L-1.5 6.80414C-1.4996 7.6787 -0.992424 8.47406 -0.199183 8.84313L0.433594 7.48314ZM0 6.80345H1.5V1.68821H0H-1.5V6.80345H0ZM0 1.68821L1.5 1.68852C1.49994 1.99789 1.31055 2.27413 1.02419 2.38643L0.476562 0.989971L-0.0710696 -0.406488C-0.931801 -0.0689461 -1.49981 0.761594 -1.5 1.68791L0 1.68821ZM0.476562 0.989971L1.024 2.38651L3.4156 1.44901L2.86816 0.0524711L2.32073 -1.34406L-0.070875 -0.406565L0.476562 0.989971ZM2.86816 0.0524711L3.41556 1.44902C2.92323 1.64199 2.3916 1.27868 2.3916 0.750713H3.8916H5.3916C5.3916 -0.83402 3.79693 -1.92268 2.32077 -1.34408L2.86816 0.0524711ZM3.8916 0.750713H2.3916V3.95384H3.8916H5.3916V0.750713H3.8916ZM3.8916 3.95384L3.3139 5.33813L4.30609 5.75219L4.88379 4.3679L5.46149 2.98361L4.4693 2.56955L3.8916 3.95384ZM4.88379 4.3679L5.46149 5.75219L6.45367 5.33813L5.87598 3.95384L5.29828 2.56955L4.30609 2.98361L4.88379 4.3679ZM5.87598 3.95384H7.37598V0.750713H5.87598H4.37598V3.95384H5.87598Z" fill="#1F2024" mask="url(#path-1-inside-1_0_13776)"/>
</g>
</svg>
