<svg preserveAspectRatio="none" width="100%" height="100%" overflow="visible" style="display: block;" viewBox="0 0 17.998 20.8895" fill="none" xmlns="http://www.w3.org/2000/svg">
<g id="Union">
<path d="M9 12.75C10.0355 12.75 10.875 13.5895 10.875 14.625C10.875 15.6605 10.0355 16.5 9 16.5C7.96447 16.5 7.125 15.6605 7.125 14.625C7.125 13.5895 7.96447 12.75 9 12.75Z" fill="#1F2024"/>
<path fill-rule="evenodd" clip-rule="evenodd" d="M10.5 0C12.1569 0 13.5 1.34315 13.5 3V8.24316H15.7393C16.9812 8.24268 17.9888 9.24923 17.9902 10.4912L17.998 17.5713C17.999 18.3717 17.5124 19.0917 16.7695 19.3896C11.7827 21.3895 6.21531 21.3895 1.22852 19.3896C0.4866 19.0919 0.00018682 18.3727 0 17.5732V10.499C0 9.25676 1.00677 8.24956 2.24902 8.24902L4.5 8.24707V3C4.5 1.34315 5.84315 0 7.5 0H10.5ZM2.25 9.74902C1.8359 9.74918 1.5 10.0849 1.5 10.499V17.5732C1.50019 17.7596 1.61379 17.9274 1.78711 17.9971C6.41551 19.8532 11.5827 19.854 16.2109 17.998C16.3844 17.9285 16.4982 17.7601 16.498 17.5732L16.4902 10.4932C16.4898 10.0793 16.1541 9.74314 15.7402 9.74316L2.25 9.74902ZM7.5 1.5C6.67157 1.5 6 2.17157 6 3V8.24707L12 8.24414V3C12 2.17157 11.3284 1.5 10.5 1.5H7.5Z" fill="#1F2024"/>
</g>
</svg>
