<svg preserveAspectRatio="none" width="100%" height="100%" overflow="visible" style="display: block;" viewBox="0 0 21.001 18" fill="none" xmlns="http://www.w3.org/2000/svg">
<path id="Union" d="M18.9805 0.0117188C20.1151 0.126892 21.001 1.08499 21.001 2.25V15.75L20.9893 15.9805C20.8817 17.0395 20.0395 17.8818 18.9805 17.9893L18.751 18H2.25L2.01953 17.9893C0.885134 17.8739 0 16.9148 0 15.75V2.25C0 1.08517 0.885159 0.127137 2.01953 0.0117188L2.25 0H18.751L18.9805 0.0117188ZM2.25 1.5C1.83578 1.5 1.5 1.83579 1.5 2.25V3.75H19.5V5.25H1.5V15.75C1.5 16.1642 1.83579 16.5 2.25 16.5H18.751C19.165 16.4998 19.501 16.1641 19.501 15.75V2.25C19.501 1.83593 19.165 1.50024 18.751 1.5H2.25ZM16.417 7.19141C16.5875 6.8141 17.0318 6.64612 17.4092 6.81641C17.7865 6.98687 17.9544 7.4312 17.7842 7.80859L15.2207 13.4854C14.852 14.3018 13.723 14.381 13.2441 13.624L11.5244 10.9033L10.3857 13.5381C10.0493 14.3158 9.00607 14.4566 8.47559 13.7959L6.31348 11.1025L4.40918 14.6084C4.21141 14.9723 3.75554 15.1069 3.3916 14.9092C3.02814 14.7114 2.8935 14.2563 3.09082 13.8926L5.26465 9.8916C5.64832 9.18573 6.62769 9.0974 7.13086 9.72363L9.25586 12.3701L10.4297 9.65723C10.7886 8.82775 11.9299 8.73912 12.4131 9.50293L14.1396 12.2334L16.417 7.19141Z" fill="#1F2024"/>
</svg>
