<svg preserveAspectRatio="none" width="100%" height="100%" overflow="visible" style="display: block;" viewBox="0 0 21 16.5" fill="none" xmlns="http://www.w3.org/2000/svg">
<g id="Union">
<path d="M7.875 6.75C8.49632 6.75 9 7.25368 9 7.875V11.625C9 12.2463 8.49632 12.75 7.875 12.75H4.125C3.50368 12.75 3 12.2463 3 11.625V7.875C3 7.25368 3.50368 6.75 4.125 6.75H7.875Z" fill="#1F2024"/>
<path d="M17.627 10.5C17.8341 10.5 18.002 10.6679 18.002 10.875V11.625C18.002 11.8321 17.8341 12 17.627 12H10.9492C10.7421 12 10.5742 11.8321 10.5742 11.625V10.875C10.5742 10.6679 10.7421 10.5 10.9492 10.5H17.627Z" fill="#1F2024"/>
<path d="M17.626 7.5C17.833 7.50012 18.001 7.66797 18.001 7.875V8.625C18.001 8.83203 17.833 8.99988 17.626 9H10.9473C10.7402 9 10.5723 8.83211 10.5723 8.625V7.875C10.5723 7.66789 10.7402 7.5 10.9473 7.5H17.626Z" fill="#1F2024"/>
<path d="M4.125 2.625C4.53921 2.625 4.875 2.96079 4.875 3.375V3.75C4.875 4.16421 4.53921 4.5 4.125 4.5H3.75C3.33579 4.5 3 4.16421 3 3.75V3.375C3 2.96079 3.33579 2.625 3.75 2.625H4.125Z" fill="#1F2024"/>
<path d="M7.125 2.625C7.53921 2.625 7.875 2.96079 7.875 3.375V3.75C7.875 4.16421 7.53921 4.5 7.125 4.5H6.75C6.33579 4.5 6 4.16421 6 3.75V3.375C6 2.96079 6.33579 2.625 6.75 2.625H7.125Z" fill="#1F2024"/>
<path d="M10.125 2.625C10.5392 2.625 10.875 2.96079 10.875 3.375V3.75C10.875 4.16421 10.5392 4.5 10.125 4.5H9.75C9.33579 4.5 9 4.16421 9 3.75V3.375C9 2.96079 9.33579 2.625 9.75 2.625H10.125Z" fill="#1F2024"/>
<path fill-rule="evenodd" clip-rule="evenodd" d="M18.75 0C19.9926 0 21 1.00736 21 2.25V14.25C21 15.4926 19.9926 16.5 18.75 16.5H2.25C1.00736 16.5 0 15.4926 0 14.25V2.25C0 1.00736 1.00736 0 2.25 0H18.75ZM2.25 1.5C1.83579 1.5 1.5 1.83579 1.5 2.25V14.25C1.5 14.6642 1.83579 15 2.25 15H18.75C19.1642 15 19.5 14.6642 19.5 14.25V2.25C19.5 1.83579 19.1642 1.5 18.75 1.5H2.25Z" fill="#1F2024"/>
</g>
</svg>
