<svg preserveAspectRatio="none" width="100%" height="100%" overflow="visible" style="display: block;" viewBox="0 0 21.3662 21.8763" fill="none" xmlns="http://www.w3.org/2000/svg">
<g id="Union">
<path d="M15.7705 14.2321C16.0634 13.9392 16.5382 13.9392 16.8311 14.2321C17.1239 14.5249 17.1239 14.9997 16.8311 15.2926L14.9297 17.194H20.6162C21.0304 17.194 21.3661 17.5298 21.3662 17.944C21.3662 18.3582 21.0304 18.694 20.6162 18.694H14.9297L16.8311 20.5953C17.1239 20.8882 17.1239 21.364 16.8311 21.6569C16.5382 21.9493 16.0633 21.9495 15.7705 21.6569L12.5889 18.4742C12.296 18.1813 12.296 17.7066 12.5889 17.4137L15.7705 14.2321Z" fill="#202227"/>
<path fill-rule="evenodd" clip-rule="evenodd" d="M8.24512 0.30139C8.94124 -0.100428 9.79903 -0.100499 10.4951 0.30139L17.6152 4.41174L17.7422 4.49182C18.3627 4.90757 18.7402 5.6075 18.7402 6.36096V11.1949C18.7402 11.609 18.4042 11.9447 17.9902 11.9449C17.576 11.9449 17.2402 11.6092 17.2402 11.1949V7.04846L10.1191 10.9254V11.3883C10.1191 11.8024 9.78328 12.1383 9.36914 12.1383C8.95497 12.1383 8.61921 11.8025 8.61914 11.3883V10.9088L1.5 6.79162V14.5817C1.50011 14.8495 1.64303 15.0981 1.875 15.2321L8.62012 19.1256C8.63873 18.7279 8.96688 18.4108 9.36914 18.4108C9.78316 18.4108 10.1189 18.7468 10.1191 19.1608V19.5514C10.1192 19.5537 10.1201 19.5559 10.1201 19.5582V20.3248C10.12 20.6178 9.93537 20.8896 9.64453 20.9254C9.2156 20.9782 8.77511 20.9067 8.37793 20.7115L8.24512 20.6412L1.125 16.5299C0.472417 16.153 0.054478 15.4765 0.00488281 14.7311L0 14.5817V6.36096C0 5.55713 0.428869 4.81367 1.125 4.41174L8.24512 0.30139ZM9.74512 1.60022C9.51317 1.46634 9.22709 1.46642 8.99512 1.60022L2.25 5.49377L9.38184 9.6178L16.7178 5.62561L9.74512 1.60022Z" fill="#202227"/>
<path d="M9.36914 13.7467C9.78305 13.7467 10.1187 14.0829 10.1191 14.4967V16.0514C10.1191 16.4656 9.78333 16.8014 9.36914 16.8014C8.95493 16.8014 8.61914 16.4656 8.61914 16.0514V14.4967C8.61958 14.0829 8.9552 13.7467 9.36914 13.7467Z" fill="#202227"/>
</g>
</svg>
