<svg preserveAspectRatio="none" width="100%" height="100%" overflow="visible" style="display: block;" viewBox="0 0 21 21" fill="none" xmlns="http://www.w3.org/2000/svg">
<g id="Union">
<path d="M14.9453 15.6309C15.2438 15.6507 15.3193 15.6469 15.585 15.6309C15.9984 15.6059 16.3539 15.9215 16.3789 16.335C16.4037 16.7482 16.089 17.1038 15.6758 17.1289C15.3412 17.1492 15.2023 17.1515 14.8467 17.1279C14.4334 17.1005 14.1201 16.7434 14.1475 16.3301C14.1749 15.9169 14.5322 15.6037 14.9453 15.6309Z" fill="#1F2024"/>
<path d="M10.5107 15.2695C10.665 14.8851 11.1019 14.6982 11.4863 14.8525C11.7696 14.9662 11.8847 15.0026 12.1611 15.0938C12.5545 15.2234 12.7683 15.6476 12.6387 16.041C12.5089 16.4343 12.0847 16.6482 11.6914 16.5186C11.3841 16.4173 11.2387 16.3703 10.9268 16.2451C10.5426 16.0908 10.3566 15.6538 10.5107 15.2695Z" fill="#1F2024"/>
<path d="M7.22559 13.3311C7.45873 12.9888 7.92526 12.9008 8.26758 13.1338C8.3913 13.218 8.39805 13.249 8.52539 13.3311C8.65278 13.4131 8.78038 13.4935 8.9082 13.5713C9.26192 13.7866 9.37431 14.2478 9.15918 14.6016C8.94385 14.9553 8.4827 15.0677 8.12891 14.8525C7.99014 14.7681 7.85104 14.6818 7.71289 14.5928C7.5747 14.5037 7.55815 14.4645 7.42383 14.373C7.08147 14.1399 6.99244 13.6734 7.22559 13.3311Z" fill="#1F2024"/>
<path d="M4.52148 10.8838C4.82609 10.6031 5.30134 10.6221 5.58203 10.9268C5.77932 11.1409 5.82416 11.1766 6.04492 11.3877C6.34432 11.6739 6.35557 12.1488 6.06934 12.4482C5.78313 12.7476 5.30819 12.7578 5.00879 12.4717C4.76575 12.2393 4.6979 12.1814 4.47852 11.9434C4.19798 11.6388 4.21715 11.1645 4.52148 10.8838Z" fill="#1F2024"/>
<path d="M2.59277 7.57324C2.97954 7.42529 3.41343 7.61911 3.56152 8.00586C3.65663 8.25417 3.72685 8.35961 3.86816 8.62305C4.06396 8.98806 3.92654 9.44288 3.56152 9.63867C3.19651 9.83445 2.74169 9.69704 2.5459 9.33203C2.37748 9.01807 2.28001 8.85499 2.16016 8.54199C2.01207 8.15518 2.20596 7.72135 2.59277 7.57324Z" fill="#1F2024"/>
<path fill-rule="evenodd" clip-rule="evenodd" d="M10.5 0C16.299 0 21 4.70101 21 10.5L20.9863 11.04C20.7052 16.588 16.1178 21 10.5 21L9.95996 20.9863C4.59083 20.7143 0.285719 16.4092 0.0136719 11.04L0 10.5C0 4.70101 4.70101 0 10.5 0ZM10.5 1.5C5.52944 1.5 1.5 5.52944 1.5 10.5C1.50003 15.4705 5.52946 19.5 10.5 19.5C15.4705 19.5 19.5 15.4705 19.5 10.5C19.5 5.52944 15.4706 1.5 10.5 1.5Z" fill="#1F2024"/>
</g>
</svg>
