<svg preserveAspectRatio="none" width="100%" height="100%" overflow="visible" style="display: block;" viewBox="0 0 21.2355 20.9925" fill="none" xmlns="http://www.w3.org/2000/svg">
<g id="Union">
<path d="M10.5005 13.6326C10.8886 13.6327 11.207 13.9275 11.2456 14.3054L11.2505 14.3826V18.4324L13.1519 16.53C13.4446 16.2374 13.9195 16.2376 14.2124 16.53C14.5052 16.8229 14.5052 17.2977 14.2124 17.5906L11.0308 20.7732C10.738 21.0656 10.2631 21.0656 9.97024 20.7732L6.78763 17.5906C6.49547 17.2978 6.4953 16.8228 6.78763 16.53C7.08031 16.2374 7.55523 16.2378 7.84817 16.53L9.75052 18.4324V14.3826L9.75442 14.3054C9.79299 13.9276 10.1125 13.6328 10.5005 13.6326Z" fill="#1F2024"/>
<path d="M3.40091 6.77614C3.6936 6.48345 4.16851 6.48386 4.46145 6.77614C4.75426 7.06904 4.75432 7.54382 4.46145 7.83669L2.56009 9.73903H6.60989L6.68704 9.74294C7.06494 9.78157 7.35981 10.1009 7.35989 10.489C7.35957 10.8769 7.06478 11.1955 6.68704 11.2341L6.60989 11.2381H2.56009L4.46145 13.1404C4.75426 13.4333 4.75432 13.9081 4.46145 14.2009C4.16855 14.4933 3.69364 14.4936 3.40091 14.2009L0.219267 11.0193C-0.0731605 10.7266 -0.0730175 10.2516 0.219267 9.95876L3.40091 6.77614Z" fill="#1F2024"/>
<path d="M16.773 6.77614C17.0657 6.48345 17.5406 6.48372 17.8335 6.77614L21.0161 9.95876C21.3085 10.2517 21.3088 10.7266 21.0161 11.0193L17.8335 14.2009C17.5406 14.4934 17.0658 14.4936 16.773 14.2009C16.4805 13.9081 16.4806 13.4332 16.773 13.1404L18.6743 11.2381H14.6255L14.5484 11.2341C14.1707 11.1954 13.8758 10.8768 13.8755 10.489C13.8756 10.101 14.1706 9.78168 14.5484 9.74294L14.6255 9.73903H18.6743L16.773 7.83669C16.4806 7.54384 16.4805 7.0689 16.773 6.77614Z" fill="#1F2024"/>
<path d="M10.5025 8.48903C11.6069 8.48919 12.5025 9.38456 12.5025 10.489C12.5023 11.5933 11.6068 12.4889 10.5025 12.489C9.39803 12.489 8.50267 11.5934 8.50247 10.489C8.50247 9.38446 9.3979 8.48903 10.5025 8.48903Z" fill="#1F2024"/>
<path d="M9.97024 0.219498C10.263 -0.0732484 10.7379 -0.0730836 11.0308 0.219498L14.2124 3.40114C14.5052 3.69402 14.5052 4.16882 14.2124 4.46169C13.9195 4.75429 13.4447 4.75441 13.1519 4.46169L11.2505 2.56032V6.60915L11.2456 6.68727C11.2068 7.06494 10.8884 7.35903 10.5005 7.35915C10.1127 7.35891 9.79322 7.06489 9.75442 6.68727L9.75052 6.60915V2.56032L7.84817 4.46169C7.55528 4.75419 7.08041 4.75437 6.78763 4.46169C6.49546 4.16886 6.4953 3.69386 6.78763 3.40114L9.97024 0.219498Z" fill="#1F2024"/>
</g>
</svg>
