<svg preserveAspectRatio="none" width="100%" height="100%" overflow="visible" style="display: block;" viewBox="0 0 22.045 20.871" fill="none" xmlns="http://www.w3.org/2000/svg">
<g id="Vector">
<path fill-rule="evenodd" clip-rule="evenodd" d="M11.0392 3.13843C11.4534 3.13843 11.7892 3.47421 11.7892 3.88843V19.7458C11.7892 20.1601 11.4534 20.4958 11.0392 20.4958C10.625 20.4958 10.2892 20.1601 10.2892 19.7458V3.88843C10.2892 3.47421 10.625 3.13843 11.0392 3.13843Z" fill="#1F2024"/>
<path fill-rule="evenodd" clip-rule="evenodd" d="M20.0342 11.8175C20.4359 11.9186 20.6796 12.3261 20.5785 12.7278L20.3549 13.6166C19.2818 17.8815 15.4469 20.871 11.0491 20.871C6.60957 20.871 2.74964 17.8256 1.71668 13.5079L1.52803 12.7193C1.43166 12.3165 1.6801 11.9118 2.08295 11.8154C2.48579 11.719 2.89049 11.9675 2.98687 12.3703L3.17551 13.1589C4.047 16.8016 7.30355 19.371 11.0491 19.371C14.7595 19.371 17.9949 16.8488 18.9002 13.2506L19.1239 12.3618C19.2249 11.9601 19.6325 11.7164 20.0342 11.8175Z" fill="#1F2024"/>
<path fill-rule="evenodd" clip-rule="evenodd" d="M0.375125 14.8077C0.0164058 14.6006 -0.106501 14.1419 0.100606 13.7832L1.26448 11.7673C1.57514 11.2292 2.26318 11.0449 2.80126 11.3555L4.81715 12.5194C5.17587 12.7265 5.29878 13.1852 5.09167 13.5439C4.88456 13.9026 4.42587 14.0255 4.06715 13.8184L2.37602 12.8421L1.39964 14.5332C1.19254 14.8919 0.733845 15.0148 0.375125 14.8077Z" fill="#1F2024"/>
<path fill-rule="evenodd" clip-rule="evenodd" d="M17.2627 13.5858C17.0556 13.2271 17.1785 12.7684 17.5372 12.5613L19.357 11.5107C19.8951 11.2 20.5831 11.3844 20.8938 11.9224L21.9444 13.7422C22.1515 14.1009 22.0286 14.5596 21.6699 14.7667C21.3111 14.9738 20.8524 14.8509 20.6453 14.4922L19.7822 12.9972L18.2872 13.8603C17.9285 14.0674 17.4698 13.9445 17.2627 13.5858Z" fill="#1F2024"/>
<path fill-rule="evenodd" clip-rule="evenodd" d="M7.25696 9.7009C7.25696 9.28669 7.59275 8.9509 8.00696 8.9509H14.007C14.4212 8.9509 14.757 9.28669 14.757 9.7009C14.757 10.1151 14.4212 10.4509 14.007 10.4509H8.00696C7.59275 10.4509 7.25696 10.1151 7.25696 9.7009Z" fill="#1F2024"/>
<path fill-rule="evenodd" clip-rule="evenodd" d="M11.0392 3.13843C11.4534 3.13843 11.7892 3.47421 11.7892 3.88843V19.7458C11.7892 20.1601 11.4534 20.4958 11.0392 20.4958C10.625 20.4958 10.2892 20.1601 10.2892 19.7458V3.88843C10.2892 3.47421 10.625 3.13843 11.0392 3.13843Z" fill="#1F2024"/>
<path fill-rule="evenodd" clip-rule="evenodd" d="M11.8038 1.5H10.3038V3H11.8038V1.5ZM10.3038 0C9.47541 0 8.80384 0.671573 8.80384 1.5V3C8.80384 3.82843 9.47541 4.5 10.3038 4.5H11.8038C12.6323 4.5 13.3038 3.82843 13.3038 3V1.5C13.3038 0.671573 12.6323 0 11.8038 0H10.3038Z" fill="#1F2024"/>
</g>
</svg>
