<svg preserveAspectRatio="none" width="100%" height="100%" overflow="visible" style="display: block;" viewBox="0 0 19.1151 18.3693" fill="none" xmlns="http://www.w3.org/2000/svg">
<g id="Vector">
<path d="M5.20131 2.91409C5.17974 4.26168 3.51446 5.50301 2.28516 5.86189L12.7622 5.74327C12.9154 4.80787 13.3563 3.97123 13.9899 3.32542L3.03959 0C3.98691 0.516985 5.21979 1.76013 5.20131 2.91409Z" fill="#E1621E"/>
<path d="M8.90039 15.9425C8.63843 15.8628 7.03411 14.98 6.74669 14.9754C5.09004 14.9488 3.72557 16.2703 3.69906 17.927C3.69665 18.0771 3.70532 18.2248 3.7243 18.3693L0.593914 6.96709C1.07564 7.14785 1.59895 7.24711 2.14832 7.24694L3.36219 7.24655L7.89729 14.5011L8.90039 15.9425Z" fill="#E1621E"/>
<path d="M0 4.8038L0.000327662 4.80499C0.530167 5.38121 1.29101 5.74721 2.14784 5.74694C1.29055 5.74721 0.529876 5.38055 0 4.8038Z" fill="#E1621E"/>
<path d="M19.1151 8.78339C18.6296 9.10234 17.7807 9.48596 17.1561 9.47596C15.7812 9.45396 14.9326 6.2651 14.5983 4.9978L13.4952 7.24337L9.5874 14.5241C10.2888 15.1118 10.8076 15.909 11.0488 16.8175L19.1151 8.78339Z" fill="#E1621E"/>
</g>
</svg>
