<svg preserveAspectRatio="none" width="100%" height="100%" overflow="visible" style="display: block;" viewBox="0 0 19.5 19.5" fill="none" xmlns="http://www.w3.org/2000/svg">
<g id="Vector">
<path d="M11.25 0C11.6642 1.81197e-08 12 0.335786 12 0.75C12 1.16421 11.6642 1.5 11.25 1.5H1.5V18H18V8.25C18 7.83579 18.3358 7.5 18.75 7.5C19.1642 7.5 19.5 7.83579 19.5 8.25V18C19.5 18.8284 18.8284 19.5 18 19.5H1.5C0.671573 19.5 0 18.8284 0 18V1.5C2.89917e-07 0.671573 0.671573 0 1.5 0H11.25Z" fill="#1F2024"/>
<path d="M18.75 0C19.1642 0 19.5 0.335786 19.5 0.75V5.25C19.5 5.66421 19.1642 6 18.75 6C18.3358 6 18 5.66421 18 5.25V2.56055L13.2803 7.28027L13.2236 7.33203C12.9291 7.57234 12.4943 7.55488 12.2197 7.28027C11.9451 7.00567 11.9277 6.57095 12.168 6.27637L12.2197 6.21973L16.9395 1.5H14.25C13.8358 1.5 13.5 1.16421 13.5 0.75C13.5 0.335786 13.8358 0 14.25 0H18.75Z" fill="#1F2024"/>
<path d="M9 18V19.5H1.5V18H9ZM9 10.5H1.5V19.5L1.34668 19.4922C0.590277 19.4154 0 18.7767 0 18V10.5C0 9.72334 0.590277 9.08461 1.34668 9.00781L1.5 9H9C9.82843 9 10.5 9.67157 10.5 10.5V18C10.5 18.8284 9.82843 19.5 9 19.5V10.5Z" fill="#1F2024"/>
</g>
</svg>
