<svg preserveAspectRatio="none" width="100%" height="100%" overflow="visible" style="display: block;" viewBox="0 0 21.0006 20.9754" fill="none" xmlns="http://www.w3.org/2000/svg">
<g id="Vector">
<path fill-rule="evenodd" clip-rule="evenodd" d="M20.2539 9.78192C20.6681 9.78374 21.0024 10.121 21.0006 10.5352C20.9993 10.838 20.9849 11.1432 20.957 11.45C20.9292 11.7569 20.8883 12.0596 20.835 12.3577C20.7622 12.7655 20.3726 13.037 19.9648 12.9641C19.5571 12.8913 19.2856 12.5017 19.3584 12.0939C19.4041 11.8382 19.4392 11.5782 19.4632 11.3143C19.4872 11.0504 19.4995 10.7884 19.5006 10.5286C19.5025 10.1144 19.8397 9.78009 20.2539 9.78192ZM19.3071 14.7563C19.665 14.9649 19.7861 15.424 19.5775 15.7819C19.2682 16.3127 18.9143 16.8127 18.5213 17.277C18.2537 17.5932 17.7805 17.6326 17.4643 17.365C17.1481 17.0975 17.1087 16.6242 17.3763 16.308C17.7133 15.9098 18.0166 15.4814 18.2815 15.0268C18.49 14.6689 18.9492 14.5478 19.3071 14.7563ZM15.9977 18.5873C16.2039 18.9466 16.0799 19.405 15.7206 19.6112C15.193 19.9141 14.6375 20.1721 14.0597 20.3807C13.67 20.5213 13.2402 20.3195 13.0996 19.9299C12.9589 19.5403 13.1608 19.1104 13.5504 18.9698C14.0453 18.7912 14.5214 18.57 14.9738 18.3103C15.3331 18.1041 15.7915 18.2281 15.9977 18.5873Z" fill="#1F2024"/>
<path d="M12.375 10.5C12.375 11.5355 11.5355 12.375 10.5 12.375C9.46447 12.375 8.625 11.5355 8.625 10.5C8.625 9.46447 9.46447 8.625 10.5 8.625C11.5355 8.625 12.375 9.46447 12.375 10.5Z" fill="#1F2024"/>
<path d="M10.5 0C14.3216 0 17.6639 2.04254 19.5 5.09473V2.25C19.5 1.83579 19.8358 1.5 20.25 1.5C20.6642 1.5 21 1.83579 21 2.25V6.75C21 7.16421 20.6642 7.5 20.25 7.5H15.75C15.3358 7.5 15 7.16421 15 6.75C15 6.33579 15.3358 6 15.75 6H18.293C16.737 3.31038 13.8308 1.5 10.5 1.5C5.52944 1.5 1.5 5.52944 1.5 10.5C1.5 15.218 5.13037 19.0876 9.75 19.4688C10.1628 19.5028 10.5 19.8358 10.5 20.25C10.5 20.6642 10.1631 21.0027 9.75 20.9736C4.30109 20.589 0 16.0468 0 10.5C0 4.70101 4.70101 0 10.5 0Z" fill="#1F2024"/>
</g>
</svg>
