<svg preserveAspectRatio="none" width="100%" height="100%" overflow="visible" style="display: block;" viewBox="0 0 21 21" fill="none" xmlns="http://www.w3.org/2000/svg">
<g id="Vector">
<path fill-rule="evenodd" clip-rule="evenodd" d="M9.37598 3.37479C10.0721 2.9731 10.93 2.97295 11.626 3.37479L16.126 5.97343L16.2529 6.05253C16.8737 6.46822 17.2509 7.16809 17.251 7.92167V13.1189L17.2461 13.2683C17.1963 14.0136 16.7785 14.6904 16.126 15.0672L11.626 17.6658L11.4932 17.7361C10.8676 18.0437 10.1334 18.0437 9.50781 17.7361L9.37598 17.6658L4.875 15.0672C4.22245 14.6904 3.80465 14.0136 3.75488 13.2683L3.75 13.1189V7.92167C3.75005 7.11797 4.17904 6.37536 4.875 5.97343L9.37598 3.37479ZM5.25 13.1189C5.2503 13.3866 5.3932 13.6345 5.625 13.7683L9.75098 16.1492V10.9578L5.25 8.35429V13.1189ZM11.251 10.9598V16.1492L15.376 13.7683C15.6078 13.6345 15.7507 13.3866 15.751 13.1189V8.35233L11.251 10.9598ZM10.7861 4.62968C10.573 4.54189 10.3289 4.55668 10.126 4.67362L5.99805 7.05546L10.502 9.65995L14.998 7.05448L10.876 4.67362L10.7861 4.62968Z" fill="#1F2024"/>
<path d="M0 3.89201V0.5625C0 0.25184 0.25184 1.70125e-07 0.5625 1.70125e-07H3.892C4.39314 1.70125e-07 4.64411 0.605893 4.28975 0.960248L0.960248 4.28975C0.605892 4.64411 0 4.39314 0 3.89201Z" fill="#1F2024"/>
<path d="M21 17.108V20.4375C21 20.7482 20.7482 21 20.4375 21H17.108C16.6069 21 16.3559 20.3941 16.7102 20.0398L20.0398 16.7102C20.3941 16.3559 21 16.6069 21 17.108Z" fill="#1F2024"/>
<path d="M17.108 0L20.4375 1.45537e-07C20.7482 1.59117e-07 21 0.25184 21 0.5625V3.892C21 4.39314 20.3941 4.64411 20.0398 4.28975L16.7102 0.960248C16.3559 0.605892 16.6069 -2.19053e-08 17.108 0Z" fill="#1F2024"/>
<path d="M3.892 21H0.5625C0.25184 21 3.30255e-08 20.7482 7.37637e-08 20.4375L5.10376e-07 17.108C5.76091e-07 16.6069 0.605893 16.3559 0.960248 16.7102L4.28975 20.0398C4.64411 20.3941 4.39314 21 3.892 21Z" fill="#1F2024"/>
</g>
</svg>
