<svg preserveAspectRatio="none" width="100%" height="100%" overflow="visible" style="display: block;" viewBox="0 0 16 16" fill="none" xmlns="http://www.w3.org/2000/svg">
<g id="DarkTheme/16/BlockMesh">
<path id="Union" fill-rule="evenodd" clip-rule="evenodd" d="M2.99426 1.42397C2.95227 1.15104 2.69697 0.963825 2.42404 1.00581C2.15111 1.0478 1.9639 1.3031 2.00588 1.57603L2.08403 2.08398L1.57596 2.00581C1.30303 1.96382 1.04773 2.15104 1.00574 2.42397C0.963754 2.6969 1.15097 2.9522 1.4239 2.99419L2.24346 3.12027L2.77195 6.55546C2.82017 6.86889 2.8526 7.18413 2.86925 7.5H1.5C1.22386 7.5 1 7.72386 1 8C1 8.27614 1.22386 8.5 1.5 8.5H2.86925C2.8526 8.81587 2.82017 9.13111 2.77195 9.44454L2.24346 12.8797L1.4239 13.0058C1.15097 13.0478 0.963754 13.3031 1.00574 13.576C1.04773 13.849 1.30303 14.0362 1.57596 13.9942L2.08403 13.916L2.00588 14.424C1.9639 14.6969 2.15111 14.9522 2.42404 14.9942C2.69697 15.0362 2.95227 14.849 2.99426 14.576L3.12032 13.7566L6.55539 13.2281C6.86884 13.1799 7.18411 13.1475 7.5 13.1308V14.5C7.5 14.7761 7.72386 15 8 15C8.27614 15 8.5 14.7761 8.5 14.5V13.1308C8.81584 13.1475 9.13106 13.1799 9.44447 13.2281L12.8798 13.7566L13.0058 14.576C13.0478 14.849 13.3031 15.0362 13.5761 14.9942C13.849 14.9522 14.0362 14.6969 13.9942 14.424L13.9161 13.9161L14.4239 13.9942C14.6968 14.0362 14.9521 13.849 14.9941 13.576C15.0361 13.3031 14.8489 13.0478 14.576 13.0058L13.7566 12.8798L13.2281 9.44454C13.1799 9.13111 13.1475 8.81587 13.1308 8.5H14.5C14.7761 8.5 15 8.27614 15 8C15 7.72386 14.7761 7.5 14.5 7.5H13.1308C13.1475 7.18413 13.1799 6.86889 13.2281 6.55546L13.7566 3.12023L14.576 2.99419C14.8489 2.9522 15.0361 2.6969 14.9941 2.42397C14.9521 2.15104 14.6968 1.96382 14.4239 2.00581L13.9161 2.08394L13.9942 1.57603C14.0362 1.3031 13.849 1.0478 13.5761 1.00581C13.3031 0.963825 13.0478 1.15104 13.0058 1.42397L12.8798 2.24337L9.44447 2.77188C9.13106 2.8201 8.81584 2.85253 8.5 2.86918V1.5C8.5 1.22386 8.27614 1 8 1C7.72386 1 7.5 1.22386 7.5 1.5V2.86919C7.18411 2.85254 6.86884 2.8201 6.55539 2.77188L3.12032 2.24341L2.99426 1.42397ZM7.5 3.87044C7.13325 3.85296 6.76718 3.81623 6.40333 3.76025L3.27975 3.2797L3.76032 6.4034C3.8163 6.76723 3.85302 7.13327 3.87051 7.5H7.5V3.87044ZM7.5 8.5H3.87051C3.85303 8.86673 3.8163 9.23277 3.76032 9.5966L3.27975 12.7203L6.40333 12.2397C6.76718 12.1838 7.13325 12.147 7.5 12.1296V8.5ZM8.5 12.1296V8.5H12.1296C12.1471 8.86673 12.1838 9.23277 12.2398 9.5966L12.7203 12.7203L9.59653 12.2397C9.23272 12.1838 8.86671 12.1471 8.5 12.1296ZM8.5 7.5V3.87043C8.86671 3.85295 9.23272 3.81622 9.59653 3.76025L12.7203 3.27966L12.2398 6.4034C12.1838 6.76723 12.1471 7.13327 12.1296 7.5H8.5Z" fill="var(--fill-0, #2BB1FF)"/>
</g>
</svg>
