<svg width="16" height="16" viewBox="0 0 16 16" fill="none" xmlns="http://www.w3.org/2000/svg">
<g id="DarkTheme/16/BoolValue">
<g id="Union">
<path d="M3.5 1C2.11929 1 1 2.11929 1 3.5V7.5C1 8.88071 2.11929 10 3.5 10H4.5C4.77614 10 5 9.77614 5 9.5C5 9.22386 4.77614 9 4.5 9H3.5C2.67157 9 2 8.32843 2 7.5V3.5C2 2.67157 2.67157 2 3.5 2H7.5C8.32843 2 9 2.67157 9 3.5V4.5C9 4.77614 9.22386 5 9.5 5C9.77614 5 10 4.77614 10 4.5V3.5C10 2.11929 8.88071 1 7.5 1H3.5Z" fill="#E1E1E1"/>
<path d="M6.20711 5.5L7.85355 3.85355C8.04882 3.65829 8.04882 3.34171 7.85355 3.14645C7.65829 2.95118 7.34171 2.95118 7.14645 3.14645L5.5 4.79289L3.85355 3.14645C3.65829 2.95118 3.34171 2.95118 3.14645 3.14645C2.95118 3.34171 2.95118 3.65829 3.14645 3.85355L4.79289 5.5L3.14645 7.14645C2.95118 7.34171 2.95118 7.65829 3.14645 7.85355C3.34171 8.04882 3.65829 8.04882 3.85355 7.85355L5.5 6.20711L6.14645 6.85355C6.34171 7.04882 6.65829 7.04882 6.85355 6.85355C7.04882 6.65829 7.04882 6.34171 6.85355 6.14645L6.20711 5.5Z" fill="#E1E1E1"/>
<path fill-rule="evenodd" clip-rule="evenodd" d="M15 10.5C15 12.9853 12.9853 15 10.5 15C8.01472 15 6 12.9853 6 10.5C6 8.01472 8.01472 6 10.5 6C12.9853 6 15 8.01472 15 10.5ZM13.4255 8.8605C13.6207 9.05576 13.6207 9.37234 13.4255 9.5676L9.82409 13.169L7.86595 10.8202C7.68913 10.6081 7.71773 10.2928 7.92983 10.116C8.14193 9.93913 8.45722 9.96773 8.63405 10.1798L9.89113 11.6877L12.7183 8.8605C12.9136 8.66523 13.2302 8.66523 13.4255 8.8605Z" fill="#E1E1E1"/>
</g>
</g>
</svg>
