<svg preserveAspectRatio="none" width="100%" height="100%" overflow="visible" style="display: block;" viewBox="0 0 16 16" fill="none" xmlns="http://www.w3.org/2000/svg">
<g id="DarkTheme/16/Camera">
<path id="Union" d="M9.58594 2C9.8511 2.00004 10.1055 2.10547 10.293 2.29297L11 3H13C14.1046 3 15 3.89543 15 5V12C15 13.1046 14.1046 14 13 14H3C1.89543 14 1 13.1046 1 12V5C1 3.89543 1.89543 3 3 3H5L5.70703 2.29297C5.89453 2.10547 6.1489 2.00004 6.41406 2H9.58594ZM5.41406 4H3C2.44772 4 2 4.44772 2 5V12C2 12.5523 2.44772 13 3 13H13C13.5523 13 14 12.5523 14 12V5C14 4.44772 13.5523 4 13 4H10.5859L9.58594 3H6.41406L5.41406 4ZM8 5.5C9.79493 5.5 11.25 6.95507 11.25 8.75C11.25 10.5449 9.79493 12 8 12C6.20507 12 4.75 10.5449 4.75 8.75C4.75 6.95507 6.20507 5.5 8 5.5ZM8 6.5C6.75736 6.5 5.75 7.50736 5.75 8.75C5.75 9.99264 6.75736 11 8 11C9.24264 11 10.25 9.99264 10.25 8.75C10.25 7.50736 9.24264 6.5 8 6.5ZM12 5C12.5523 5 13 5.44772 13 6C13 6.55228 12.5523 7 12 7C11.4477 7 11 6.55228 11 6C11 5.44772 11.4477 5 12 5Z" fill="var(--fill-0, #E1E1E1)"/>
</g>
</svg>
