<svg preserveAspectRatio="none" width="100%" height="100%" overflow="visible" style="display: block;" viewBox="0 0 16 16" fill="none" xmlns="http://www.w3.org/2000/svg">
<g id="LightTheme/16/CharacterMesh">
<path id="Subtract" fill-rule="evenodd" clip-rule="evenodd" d="M6.08334 1C6.35948 1 6.58334 1.22386 6.58334 1.5V2.61225C6.70348 2.60592 6.82354 2.59731 6.94343 2.58641L9.17114 2.38389L9.35441 1.77299C9.43376 1.50849 9.7125 1.3584 9.977 1.43775C10.2415 1.5171 10.3916 1.79584 10.3122 2.06034L10.2444 2.28631L10.6214 2.25205C10.8964 2.22705 11.1396 2.42972 11.1646 2.70473C11.1896 2.97973 10.9869 3.22294 10.7119 3.24794L9.93476 3.31859L9.92428 3.3535C9.7056 4.08244 9.57644 4.83109 9.5368 5.58331H10.6666C10.9428 5.58331 11.1666 5.80717 11.1666 6.08331C11.1666 6.35945 10.9428 6.58331 10.6666 6.58331H9.5368C9.54466 6.73254 9.55605 6.88163 9.57096 7.03045C9.22465 7.08004 8.89742 7.18878 8.59984 7.34611C8.56912 7.09252 8.54769 6.83808 8.53554 6.58331H6.58334V8.55311C6.7337 8.56028 6.88394 8.57068 7.03397 8.58432L7.33965 8.61211C7.18326 8.91127 7.07585 9.24008 7.02807 9.58791L6.94343 9.58021C6.82353 9.56931 6.70348 9.5607 6.58334 9.55437V10.25C6.58334 10.5261 6.35948 10.75 6.08334 10.75C5.8072 10.75 5.58334 10.5261 5.58334 10.25V9.55436C5.4632 9.5607 5.34315 9.56931 5.22325 9.58021L2.99554 9.78273L2.81227 10.3936C2.73293 10.6581 2.45418 10.8082 2.18969 10.7289C1.92519 10.6495 1.7751 10.3708 1.85445 10.1063L1.92224 9.8803L1.5453 9.91457C1.27029 9.93957 1.02709 9.7369 1.00209 9.46189C0.977085 9.18688 1.17976 8.94368 1.45476 8.91868L2.23192 8.84803L2.2424 8.81311C2.46108 8.08418 2.59024 7.33553 2.62988 6.58331H1.50003C1.22389 6.58331 1.00003 6.35945 1.00003 6.08331C1.00003 5.80717 1.22389 5.58331 1.50003 5.58331H2.62988C2.59024 4.83109 2.46108 4.08244 2.2424 3.3535L2.23192 3.31859L1.45476 3.24794C1.17976 3.22294 0.977085 2.97973 1.00209 2.70473C1.02709 2.42972 1.27029 2.22705 1.5453 2.25205L1.92224 2.28631L1.85445 2.06034C1.7751 1.79584 1.92519 1.5171 2.18969 1.43775C2.45418 1.3584 2.73293 1.50849 2.81227 1.77299L2.99554 2.38389L5.22325 2.58641C5.34315 2.59731 5.4632 2.60592 5.58334 2.61225V1.5C5.58334 1.22386 5.8072 1 6.08334 1ZM3.63114 6.58331C3.59637 7.31265 3.48549 8.03925 3.2985 8.75107L5.13271 8.58432C5.28274 8.57068 5.43298 8.56028 5.58334 8.55311V6.58331H3.63114ZM5.58334 5.58331H3.63114C3.59637 4.85396 3.48549 4.12737 3.2985 3.41555L5.13272 3.5823C5.28274 3.59594 5.43298 3.60634 5.58334 3.61351V5.58331ZM8.53554 5.58331H6.58334V3.61351C6.7337 3.60634 6.88394 3.59594 7.03397 3.5823L8.86819 3.41555C8.68119 4.12737 8.57031 4.85396 8.53554 5.58331Z" fill="var(--fill-0, #2D50DB)"/>
<path id="Subtract_2" fill-rule="evenodd" clip-rule="evenodd" d="M8 10C8 8.89543 8.89543 8 10 8H13C14.1046 8 15 8.89543 15 10V13C15 14.1046 14.1046 15 13 15H10C8.89543 15 8 14.1046 8 13V10ZM9.6004 10.125C9.6004 9.77982 9.88022 9.5 10.2254 9.5C10.5706 9.5 10.8504 9.77982 10.8504 10.125V10.625C10.8504 10.9702 10.5706 11.25 10.2254 11.25C9.88022 11.25 9.6004 10.9702 9.6004 10.625V10.125ZM12.7254 9.5C12.3802 9.5 12.1004 9.77982 12.1004 10.125V10.625C12.1004 10.9702 12.3802 11.25 12.7254 11.25C13.0706 11.25 13.3504 10.9702 13.3504 10.625V10.125C13.3504 9.77982 13.0706 9.5 12.7254 9.5ZM10.1869 11.982C9.98522 11.8236 9.69335 11.8586 9.53493 12.0603C9.37651 12.2619 9.41153 12.5538 9.61316 12.7122L10.0025 13.0181C10.8961 13.7202 12.1539 13.7202 13.0475 13.0181L13.4369 12.7122C13.6385 12.5538 13.6735 12.2619 13.5151 12.0603C13.3567 11.8586 13.0648 11.8236 12.8632 11.982L12.4738 12.288C11.9169 12.7255 11.1331 12.7255 10.5762 12.288L10.1869 11.982Z" fill="var(--fill-0, black)"/>
</g>
</svg>
