<svg preserveAspectRatio="none" width="100%" height="100%" overflow="visible" style="display: block;" viewBox="0 0 16 16" fill="none" xmlns="http://www.w3.org/2000/svg">
<g id="LightTheme/16/ImageLabel">
<g id="Union">
<path d="M3 2H11C11.5523 2 12 2.44772 12 3V7.5C12 7.77614 12.2239 8 12.5 8C12.7761 8 13 7.77614 13 7.5V3C13 1.89543 12.1046 1 11 1H3C1.89543 1 1 1.89543 1 3V11C1 12.1046 1.89543 13 3 13H7.5C7.77614 13 8 12.7761 8 12.5C8 12.2239 7.77614 12 7.5 12H3C2.44772 12 2 11.5523 2 11V3C2 2.44772 2.44772 2 3 2Z" fill="var(--fill-0, #2D50DB)"/>
<path d="M10.4654 8.59754C10.6519 8.97062 10.5788 9.42122 10.2838 9.71616C10.1021 9.8979 9.85561 10 9.5986 10H3L6.04513 5.4323C6.25277 5.12084 6.71645 5.13961 6.89824 5.46683L8.49558 8.34204L8.96938 7.39443C9.15364 7.0259 9.67955 7.0259 9.86381 7.39443L10.4654 8.59754Z" fill="var(--fill-0, #2D50DB)"/>
<path d="M9.41667 5.33333C10.061 5.33333 10.5833 4.811 10.5833 4.16667C10.5833 3.52233 10.061 3 9.41667 3C8.77233 3 8.25 3.52233 8.25 4.16667C8.25 4.811 8.77233 5.33333 9.41667 5.33333Z" fill="var(--fill-0, #2D50DB)"/>
</g>
<path id="Subtract" fill-rule="evenodd" clip-rule="evenodd" d="M12.4141 9H14.9999V11.5858C14.9999 11.851 14.8946 12.1054 14.707 12.2929L12.3535 14.6464C12.1582 14.8417 11.8416 14.8417 11.6464 14.6464L9.35348 12.3536C9.15822 12.1583 9.15822 11.8417 9.35348 11.6464L11.707 9.29289C11.8946 9.10536 12.1489 9 12.4141 9ZM14.2008 10.75C14.2008 11.2747 13.7755 11.7 13.2508 11.7C12.7261 11.7 12.3008 11.2747 12.3008 10.75C12.3008 10.2254 12.7261 9.80005 13.2508 9.80005C13.7755 9.80005 14.2008 10.2254 14.2008 10.75Z" fill="var(--fill-0, black)"/>
</g>
</svg>
