<svg preserveAspectRatio="none" width="100%" height="100%" overflow="visible" style="display: block;" viewBox="0 0 16 16" fill="none" xmlns="http://www.w3.org/2000/svg">
<g id="LightTheme/16/ImageButton">
<path id="Subtract" fill-rule="evenodd" clip-rule="evenodd" d="M1 4C1 2.89543 1.89543 2 3 2H13C14.1046 2 15 2.89543 15 4V12C15 13.1046 14.1046 14 13 14H3C1.89543 14 1 13.1046 1 12V4ZM3 11C2.63571 11 2.29417 10.9026 2 10.7324V12C2 12.5523 2.44772 13 3 13H13C13.5523 13 14 12.5523 14 12V10.7324C13.7058 10.9026 13.3643 11 13 11H3ZM11.8704 4.16649C11.8704 4.90287 11.2734 5.49983 10.5371 5.49983C9.80069 5.49983 9.20374 4.90287 9.20374 4.16649C9.20374 3.43011 9.80069 2.83316 10.5371 2.83316C11.2734 2.83316 11.8704 3.43011 11.8704 4.16649ZM10.7373 9.26299C11.0101 9.0167 11.0778 8.64045 10.9052 8.32892L10.3488 7.32431C10.1783 7.01659 9.6919 7.01659 9.52146 7.32431L9.0832 8.11558L7.60569 5.71475C7.43753 5.44151 7.00864 5.42585 6.81658 5.68592L3.99988 9.5H10.1035C10.3412 9.5 10.5692 9.41474 10.7373 9.26299Z" fill="var(--fill-0, #00A91B)"/>
</g>
</svg>
