<svg preserveAspectRatio="none" width="100%" height="100%" overflow="visible" style="display: block;" viewBox="0 0 16 16" fill="none" xmlns="http://www.w3.org/2000/svg">
<g id="LightTheme/16/LocalScript">
<path id="Subtract" fill-rule="evenodd" clip-rule="evenodd" d="M12.1429 6V3.52366C12.1429 2.99139 12.2668 2.46643 12.5048 1.99036L13 1H2.71429L2.21911 1.99036C1.98107 2.46643 1.85714 2.99139 1.85714 3.52366V10.4763C1.85714 11.0086 1.73322 11.5336 1.49518 12.0096L1 13H7V9.99954H4.49985C4.14299 9.99954 3.8537 9.71025 3.8537 9.35339C3.8537 8.99653 4.14299 8.70723 4.49985 8.70723H7V8C7 7.63552 7.0975 7.29382 7.26783 6.99954H4.49999C4.14313 6.99954 3.85384 6.71025 3.85384 6.35339C3.85384 5.99653 4.14313 5.70723 4.49999 5.70723H9.5C9.72643 5.70723 9.92566 5.8237 10.041 6H12.1429ZM4.49999 2.8457C4.14313 2.8457 3.85384 3.135 3.85384 3.49186C3.85384 3.84872 4.14313 4.13801 4.49999 4.13801H9.5C9.85686 4.13801 10.1462 3.84872 10.1462 3.49186C10.1462 3.135 9.85686 2.8457 9.5 2.8457H4.49999Z" fill="var(--fill-0, #2D50DB)"/>
<path id="Union" fill-rule="evenodd" clip-rule="evenodd" d="M9 7C8.44772 7 8 7.44772 8 8V11.5C8 12.0523 8.44772 12.5 9 12.5H10.75V13.8247L9.3125 14.5549V14.9993H13.6875V14.5549L12.25 13.8247V12.5H14C14.5523 12.5 15 12.0523 15 11.5V8C15 7.44772 14.5523 7 14 7H9ZM9.5 8.5V11H13.5V8.5H9.5Z" fill="var(--fill-0, black)"/>
</g>
</svg>
