<svg preserveAspectRatio="none" width="100%" height="100%" overflow="visible" style="display: block;" viewBox="0 0 16 16" fill="none" xmlns="http://www.w3.org/2000/svg">
<g id="LightTheme/16/ModuleScript">
<path id="Subtract" fill-rule="evenodd" clip-rule="evenodd" d="M12.3845 9.86686H11.5736C11.5757 9.82921 11.5767 9.79315 11.5767 9.75892C11.5767 9.04522 11.5767 8 10.5546 8C9.5324 8 9.5324 9.04522 9.5324 9.75892C9.5324 9.79315 9.53345 9.82921 9.53552 9.86686H8.83582C8.37421 9.86686 8 10.2348 8 10.6887V11.4944C8.07491 11.4863 8.14821 11.482 8.21867 11.482C8.94449 11.482 9.53288 11.482 9.53288 12.4871C9.53288 13.4922 8.94449 13.4922 8.21867 13.4922C8.14821 13.4922 8.07491 13.488 8 13.4798V14.1781C8 14.632 8.37421 15 8.83582 15H12.3845C12.8461 15 13.2203 14.632 13.2203 14.1781V13.4889C13.2575 13.4911 13.294 13.4922 13.3299 13.4922C14.0557 13.4922 15 13.4922 15 12.4871C15 11.482 14.0557 11.482 13.3299 11.482C13.294 11.482 13.2575 11.4831 13.2203 11.4852V10.6887C13.2203 10.2348 12.8461 9.86686 12.3845 9.86686Z" fill="var(--fill-0, black)"/>
<path id="Subtract_2" fill-rule="evenodd" clip-rule="evenodd" d="M11.6429 6.9552V3.52368C11.6429 2.99133 11.7668 2.46643 12.0048 1.99036L12.5 1H2.21429L1.71911 1.99036C1.48107 2.46643 1.35714 2.99133 1.35714 3.52368V10.4763C1.35714 11.0087 1.23322 11.5336 0.995178 12.0096L0.5 13H6.7V10.6887C6.7 10.4462 6.7404 10.2146 6.81452 9.99939L4.14616 9.99951C3.7893 9.99951 3.50001 9.71021 3.50001 9.35339C3.50001 8.99658 3.7893 8.70728 4.14616 8.70728L7.82274 8.70715C7.89426 8.70715 7.94888 8.71875 7.99047 8.74023C8.09415 8.6958 8.20187 8.65918 8.3128 8.63135C8.34255 8.47632 8.38322 8.31897 8.43878 8.1665C8.56115 7.83081 8.78046 7.44055 9.17748 7.13904C9.5856 6.82922 10.0672 6.69995 10.5546 6.69995C10.9312 6.69995 11.3044 6.7771 11.6429 6.9552ZM4.14631 2.8457C3.78944 2.8457 3.50015 3.13501 3.50015 3.49182C3.50015 3.84875 3.78944 4.13806 4.14631 4.13806L8.85385 4.13794C9.21072 4.13794 9.50001 3.84863 9.50001 3.4917C9.50001 3.13489 9.21072 2.84558 8.85385 2.84558L4.14631 2.8457ZM4.14631 5.70728C3.78944 5.70728 3.50015 5.99658 3.50015 6.35339C3.50015 6.71021 3.78944 6.99951 4.14631 6.99951L8.85385 6.99939C9.21072 6.99939 9.50001 6.71008 9.50001 6.35327C9.50001 5.99646 9.21072 5.70715 8.85385 5.70715L4.14631 5.70728Z" fill="var(--fill-0, #AE2BFF)"/>
</g>
</svg>
