<svg width="16" height="16" viewBox="0 0 16 16" fill="none" xmlns="http://www.w3.org/2000/svg">
<g id="LightTheme/16/PartBlock">
<path id="Union" fill-rule="evenodd" clip-rule="evenodd" d="M1.875 5.13762C1.875 4.56092 2.18824 4.02972 2.69291 3.75061L7.28192 1.21264C7.76334 0.946388 8.34839 0.948815 8.82758 1.21905L13.3186 3.75167C13.8168 4.03264 14.125 4.56027 14.125 5.13227V5.36939C14.1251 5.37501 14.1251 5.38065 14.1251 5.3863L14.125 10.7051C14.125 11.2633 13.8315 11.7802 13.3522 12.0662L8.86101 14.7462C8.36486 15.0423 7.74692 15.0449 7.24827 14.7531L2.65945 12.0677C2.17359 11.7834 1.875 11.2627 1.875 10.6997V5.13762ZM7.88688 2.30649C7.98863 2.25022 8.11229 2.25073 8.21357 2.30785L12.213 4.56325L8.21874 6.67703C8.14338 6.71692 8.07212 6.76237 8.00535 6.81274C7.94074 6.76314 7.87183 6.71817 7.79898 6.67843L3.86335 4.53173L7.88688 2.30649ZM3.125 5.55285V10.6997C3.125 10.8187 3.18811 10.9287 3.2908 10.9888L7.37512 13.379L7.375 8.06989C7.375 7.9473 7.30804 7.8345 7.20042 7.7758L3.125 5.55285ZM12.875 5.62715V10.7051C12.875 10.8231 12.813 10.9324 12.7117 10.9928L8.62512 13.4313V8.07796C8.62512 7.95385 8.69373 7.83991 8.80343 7.78186L12.875 5.62715Z" fill="#5E5E5E"/>
</g>
</svg>
