<svg preserveAspectRatio="none" width="100%" height="100%" overflow="visible" style="display: block;" viewBox="0 0 16 16" fill="none" xmlns="http://www.w3.org/2000/svg">
<g id="LightTheme/16/Players">
<g id="Subtract">
<path d="M2 3.5C2 2.67157 2.67157 2 3.5 2H4.5C5.32843 2 6 2.67157 6 3.5V4.49982C5.55023 4.83766 5.21811 5.32367 5.07612 5.88538C4.89874 5.95922 4.70413 6 4.5 6H3.5C2.67157 6 2 5.32843 2 4.5V3.5Z" fill="var(--fill-0, #D68100)"/>
<path d="M5 7H3C1.89543 7 1 7.89543 1 9V11H4.17071C4.44075 10.236 5.01151 9.61399 5.74078 9.27627C5.28335 8.82321 5 8.19469 5 7.5V7Z" fill="var(--fill-0, #D68100)"/>
<path d="M11.8293 11H15V9C15 7.89543 14.1046 7 13 7H11V7.5C11 8.19469 10.7167 8.82321 10.2592 9.27627C10.9885 9.61399 11.5592 10.236 11.8293 11Z" fill="var(--fill-0, #D68100)"/>
<path d="M10.9239 5.88538C11.1013 5.95922 11.2959 6 11.5 6H12.5C13.3284 6 14 5.32843 14 4.5V3.5C14 2.67157 13.3284 2 12.5 2H11.5C10.6716 2 10 2.67157 10 3.5V4.49982C10.4498 4.83766 10.7819 5.32367 10.9239 5.88538Z" fill="var(--fill-0, #D68100)"/>
</g>
<g id="Union">
<path d="M7.5 5C6.67157 5 6 5.67157 6 6.5V7.5C6 8.32843 6.67157 9 7.5 9H8.5C9.32843 9 10 8.32843 10 7.5V6.5C10 5.67157 9.32843 5 8.5 5H7.5Z" fill="var(--fill-0, #00713D)"/>
<path d="M7 10C5.89543 10 5 10.8954 5 12V15H11V12C11 10.8954 10.1046 10 9 10H7Z" fill="var(--fill-0, #00713D)"/>
</g>
</g>
</svg>
