<svg preserveAspectRatio="none" width="100%" height="100%" overflow="visible" style="display: block;" viewBox="0 0 16 16" fill="none" xmlns="http://www.w3.org/2000/svg">
<g id="DarkTheme/16/PluginGuiService">
<path id="Subtract" fill-rule="evenodd" clip-rule="evenodd" d="M9.16667 8C8.52233 8 8 8.52233 8 9.16667V13.8333C8 14.4777 8.52233 15 9.16667 15H13.8333C14.4777 15 15 14.4777 15 13.8333V9.16667C15 8.52233 14.4777 8 13.8333 8H9.16667ZM11.5 13.25C12.4665 13.25 13.25 12.4665 13.25 11.5C13.25 10.5335 12.4665 9.75 11.5 9.75C10.5335 9.75 9.75 10.5335 9.75 11.5C9.75 12.4665 10.5335 13.25 11.5 13.25Z" fill="var(--fill-0, white)"/>
<path id="Union" d="M2 11V3.66667H14V7C14.3643 7 14.7058 7.09739 15 7.26756V3C15 1.89543 14.1046 1 13 1H3C1.89543 1 1 1.89543 1 3V11C1 12.1046 1.89543 13 3 13H7V12H5.68164L5.68164 9.8499C6.40881 9.73362 7.02421 9.22239 7.26252 8.50745L7.5873 7.53311C7.69522 7.20935 7.45424 6.875 7.11296 6.875H6.82227V5C6.82227 4.79289 6.65437 4.625 6.44727 4.625C6.24016 4.625 6.07227 4.79289 6.07227 5V6.875L4.54102 6.875L4.54102 5C4.54102 4.79289 4.37312 4.625 4.16602 4.625C3.95891 4.625 3.79102 4.79289 3.79102 5V6.875H3.50038C3.1591 6.875 2.91812 7.20935 3.02604 7.53311L3.35082 8.50746C3.58913 9.22237 4.2045 9.73359 4.93164 9.84989L4.93164 12H3C2.44771 12 2 11.5523 2 11Z" fill="var(--fill-0, #33AAFF)"/>
</g>
</svg>
