<svg preserveAspectRatio="none" width="100%" height="100%" overflow="visible" style="display: block;" viewBox="0 0 16 16" fill="none" xmlns="http://www.w3.org/2000/svg">
<g id="LightTheme/16/RobloxPluginGuiService">
<path id="Subtract" fill-rule="evenodd" clip-rule="evenodd" d="M9.16667 8C8.52233 8 8 8.52233 8 9.16667V13.8333C8 14.4777 8.52233 15 9.16667 15H13.8333C14.4777 15 15 14.4777 15 13.8333V9.16667C15 8.52233 14.4777 8 13.8333 8H9.16667ZM11.5 13.25C12.4665 13.25 13.25 12.4665 13.25 11.5C13.25 10.5335 12.4665 9.75 11.5 9.75C10.5335 9.75 9.75 10.5335 9.75 11.5C9.75 12.4665 10.5335 13.25 11.5 13.25Z" fill="var(--fill-0, black)"/>
<g id="Union">
<path d="M2 11V3.66667H14V7H15V3C15 1.89543 14.1046 1 13 1H3C1.89543 1 1 1.89543 1 3V11C1 12.1046 1.89543 13 3 13H7V12H3C2.44771 12 2 11.5523 2 11Z" fill="var(--fill-0, #2D50DB)"/>
<path fill-rule="evenodd" clip-rule="evenodd" d="M4.89436 5H3V10H3.98478V8.11126H4.92559L5.9436 10H7V9.95192L5.8497 7.88484C5.99855 7.8224 6.1325 7.74677 6.25157 7.65797C6.42584 7.52976 6.56073 7.37065 6.65622 7.18063C6.75172 6.99061 6.79946 6.76625 6.79946 6.50756C6.79946 6.18017 6.72307 5.9043 6.57028 5.67994C6.41749 5.45559 6.19905 5.28617 5.91495 5.1717C5.63086 5.05723 5.29066 5 4.89436 5ZM3.98478 7.36607H4.9051C5.10803 7.36607 5.27634 7.33173 5.41003 7.26305C5.54372 7.19437 5.64399 7.09936 5.71083 6.97802C5.78007 6.85668 5.81468 6.71818 5.81468 6.5625C5.81468 6.39538 5.78126 6.25114 5.71441 6.12981C5.64757 6.00618 5.54611 5.91117 5.41003 5.84478C5.27395 5.77839 5.10206 5.74519 4.89436 5.74519H3.98478V7.36607Z" fill="var(--fill-0, #2D50DB)"/>
</g>
</g>
</svg>
