<svg preserveAspectRatio="none" width="100%" height="100%" overflow="visible" style="display: block;" viewBox="0 0 16 16" fill="none" xmlns="http://www.w3.org/2000/svg">
<g id="LightTheme/16/ScreenGui">
<g id="Union">
<path fill-rule="evenodd" clip-rule="evenodd" d="M3 12V6H13V12H3ZM4 7H12V11H4V7Z" fill="var(--fill-0, #2D50DB)"/>
<path fill-rule="evenodd" clip-rule="evenodd" d="M1 4C1 2.89543 1.89543 2 3 2H13C14.1046 2 15 2.89543 15 4V12C15 13.1046 14.1046 14 13 14H3C1.89543 14 1 13.1046 1 12V4ZM2 5V12C2 12.5523 2.44772 13 3 13H13C13.5523 13 14 12.5523 14 12V5H2Z" fill="var(--fill-0, #2D50DB)"/>
</g>
</g>
</svg>
