<svg preserveAspectRatio="none" width="100%" height="100%" overflow="visible" style="display: block;" viewBox="0 0 16 16" fill="none" xmlns="http://www.w3.org/2000/svg">
<g id="DarkTheme/16/Script">
<path id="Subtract" d="M15 1L14.4219 2.15527C14.1442 2.71068 14 3.32337 14 3.94434V12.0557C14 12.6766 13.8558 13.2893 13.5781 13.8447L13 15H1L1.57812 13.8447C1.85582 13.2893 2 12.6766 2 12.0557V3.94434C2 3.32337 2.14418 2.71068 2.42188 2.15527L3 1H15ZM5.2002 9.7998C4.8136 9.7998 4.5 10.1134 4.5 10.5C4.50011 10.8865 4.81366 11.2002 5.2002 11.2002H9.7002C10.0866 11.2001 10.4003 10.8864 10.4004 10.5C10.4004 10.1135 10.0867 9.79991 9.7002 9.7998H5.2002ZM5.2002 6.7998C4.8136 6.7998 4.5 7.1134 4.5 7.5C4.50011 7.88651 4.81366 8.2002 5.2002 8.2002H11.2002C11.5866 8.20009 11.9003 7.88644 11.9004 7.5C11.9004 7.11347 11.5867 6.79991 11.2002 6.7998H5.2002ZM5.2002 3.7998C4.8136 3.7998 4.5 4.1134 4.5 4.5C4.50011 4.88651 4.81366 5.2002 5.2002 5.2002H11.2002C11.5866 5.20009 11.9003 4.88644 11.9004 4.5C11.9004 4.11347 11.5867 3.79991 11.2002 3.7998H5.2002Z" fill="var(--fill-0, #E1E1E1)"/>
</g>
</svg>
