<svg preserveAspectRatio="none" width="100%" height="100%" overflow="visible" style="display: block;" viewBox="0 0 16 16" fill="none" xmlns="http://www.w3.org/2000/svg">
<g id="DarkTheme/16/ScrollingFrame">
<g id="Union">
<path d="M9 6C9 5.44772 9.44772 5 10 5C10.5523 5 11 5.44772 11 6V8C11 8.55228 10.5523 9 10 9C9.44772 9 9 8.55228 9 8V6Z" fill="var(--fill-0, #4ECC5A)"/>
<path d="M9 11V9.73244C9.29417 9.90261 9.63571 10 10 10C10.3643 10 10.7058 9.90261 11 9.73244V11C11 11.5523 10.5523 12 10 12C9.44772 12 9 11.5523 9 11Z" fill="var(--fill-0, #4ECC5A)"/>
<path fill-rule="evenodd" clip-rule="evenodd" d="M1 1H4V2H12V1H15V4H14V12H15V15H12V14H4V15H1V12H2V4H1V1ZM13 12H12V13H4V12H3V4H4V3H12V4H13V12Z" fill="var(--fill-0, #4ECC5A)"/>
</g>
</g>
</svg>
