<svg preserveAspectRatio="none" width="100%" height="100%" overflow="visible" style="display: block;" viewBox="0 0 16 16" fill="none" xmlns="http://www.w3.org/2000/svg">
<g id="DarkTheme/16/SpecialMesh">
<path id="Star 4" d="M10.9187 7.97756C10.9902 7.82258 11.2105 7.82258 11.2819 7.97756L12.2102 9.99002C12.2393 10.0532 12.2992 10.0967 12.3683 10.1049L14.5691 10.3658C14.7386 10.3859 14.8066 10.5954 14.6813 10.7112L13.0542 12.216C13.0031 12.2632 12.9803 12.3336 12.9938 12.4018L13.4258 14.5755C13.459 14.7429 13.2808 14.8724 13.1319 14.789L11.198 13.7065C11.1373 13.6725 11.0633 13.6725 11.0027 13.7065L9.06878 14.789C8.91985 14.8724 8.74166 14.7429 8.77492 14.5755L9.20684 12.4018C9.2204 12.3336 9.19753 12.2632 9.14647 12.216L7.51935 10.7112C7.39405 10.5954 7.46211 10.3859 7.63159 10.3658L9.8324 10.1049C9.90148 10.0967 9.96133 10.0532 9.99047 9.99002L10.9187 7.97756Z" fill="var(--fill-0, white)"/>
<g id="Union">
<path fill-rule="evenodd" clip-rule="evenodd" d="M6.58334 1.5C6.58334 1.22386 6.35948 1 6.08334 1C5.8072 1 5.58334 1.22386 5.58334 1.5V2.61225C5.4632 2.60592 5.34315 2.59731 5.22325 2.58641L2.99554 2.38389L2.81227 1.77299C2.73293 1.50849 2.45418 1.3584 2.18969 1.43775C1.92519 1.5171 1.7751 1.79584 1.85445 2.06034L1.92224 2.28631L1.5453 2.25205C1.27029 2.22705 1.02709 2.42972 1.00209 2.70473C0.977085 2.97973 1.17976 3.22294 1.45476 3.24794L2.23192 3.31859L2.2424 3.3535C2.46108 4.08244 2.59024 4.83109 2.62988 5.58331H1.50003C1.22389 5.58331 1.00003 5.80717 1.00003 6.08331C1.00003 6.35945 1.22389 6.58331 1.50003 6.58331H2.62988C2.59024 7.33553 2.46108 8.08418 2.2424 8.81311L2.23192 8.84803L1.45476 8.91868C1.17976 8.94368 0.977085 9.18688 1.00209 9.46189C1.02709 9.7369 1.27029 9.93957 1.5453 9.91457L1.92224 9.8803L1.85445 10.1063C1.7751 10.3708 1.92519 10.6495 2.18969 10.7289C2.45418 10.8082 2.73293 10.6581 2.81227 10.3936L2.99554 9.78273L5.22325 9.58021C5.34203 9.56941 5.46096 9.56086 5.57999 9.55454V10.25C5.57999 10.5261 5.80384 10.75 6.07999 10.75C6.08292 10.75 6.08585 10.75 6.08877 10.7499C6.23346 10.7484 6.36341 10.6854 6.45376 10.5858L6.45372 10.5822C6.53227 10.4938 6.57999 10.3775 6.57999 10.25V10.0306C6.5811 10.0284 6.58222 10.0261 6.58334 10.0239V9.55437C6.70348 9.5607 6.82353 9.56931 6.94343 9.58021L6.96097 9.58181C7.11531 9.47281 7.30129 9.39796 7.51384 9.37276L9.26997 9.16454L9.74686 8.13064C9.63418 7.6201 9.56416 7.10256 9.5368 6.58331H10.6666C10.9428 6.58331 11.1666 6.35945 11.1666 6.08331C11.1666 5.80717 10.9428 5.58331 10.6666 5.58331H9.5368C9.57644 4.83109 9.7056 4.08244 9.92428 3.3535L9.93476 3.31859L10.7119 3.24794C10.9869 3.22294 11.1896 2.97973 11.1646 2.70473C11.1396 2.42972 10.8964 2.22705 10.6214 2.25205L10.2444 2.28631L10.3122 2.06034C10.3916 1.79584 10.2415 1.5171 9.977 1.43775C9.7125 1.3584 9.43376 1.50849 9.35441 1.77299L9.17114 2.38389L6.94343 2.58641C6.82354 2.59731 6.70348 2.60592 6.58334 2.61225V1.5ZM5.58334 7.5V6.58331H3.63114C3.59637 7.31265 3.48549 8.03925 3.2985 8.75107L5.13271 8.58432C5.28162 8.57078 5.43075 8.56043 5.57999 8.55327V7.5H5.58334ZM3.63114 5.58331H5.58334V3.61351C5.43298 3.60634 5.28274 3.59594 5.13272 3.5823L3.2985 3.41555C3.48549 4.12737 3.59637 4.85396 3.63114 5.58331ZM6.58334 8.55311V6.58331H8.53554C8.57031 7.31265 8.68119 8.03925 8.86819 8.75107L7.03397 8.58432C6.88394 8.57068 6.7337 8.56028 6.58334 8.55311ZM6.58334 5.58331H8.53554C8.57031 4.85396 8.68119 4.12737 8.86819 3.41555L7.03397 3.5823C6.88394 3.59594 6.7337 3.60634 6.58334 3.61351V5.58331Z" fill="var(--fill-0, #2BB1FF)"/>
</g>
</g>
</svg>
