<svg preserveAspectRatio="none" width="100%" height="100%" overflow="visible" style="display: block;" viewBox="0 0 16 16" fill="none" xmlns="http://www.w3.org/2000/svg">
<g id="DarkTheme/16/Terrain">
<path id="Union" fill-rule="evenodd" clip-rule="evenodd" d="M2 12.5C2 12.8314 2.17783 12.9757 2.5 12.9757L10 13H13.5C13.7761 13 14 12.7761 14 12.5V10V9.5V8.96923L12.7647 7.13384C12.0118 5.77443 9.98824 5.77443 9.23529 7.13384L8.21872 8.96923C7.78942 9.74433 6.66162 9.80999 6.13846 9.09034C5.34226 7.99508 3.65774 7.99508 2.86154 9.09034L2 10.3462V12.5ZM15 9.5V10V12.5C15 13.3284 14.3284 14 13.5 14L10 14L9.5 14L2.16447 14C1.52014 14 1 13.4627 1 12.8V8.01584C1 7.62895 1.12622 7.25142 1.36154 6.93446L2.86154 4.91405C3.65774 3.84161 5.34226 3.84161 6.13846 4.91405C6.66162 5.61871 7.78942 5.55442 8.21872 4.79547L9.23529 2.99832C9.61103 2.33407 10.3032 2.0013 10.9959 2H11.0041C11.6968 2.0013 12.389 2.33407 12.7647 2.99832L14.7647 6.53403C14.9192 6.80714 15 7.1119 15 7.42143V9.5Z" fill="var(--fill-0, #00B864)"/>
</g>
</svg>
