<svg preserveAspectRatio="none" width="100%" height="100%" overflow="visible" style="display: block;" viewBox="0 0 16 16" fill="none" xmlns="http://www.w3.org/2000/svg">
<g id="LightTheme/16/TextButton">
<path id="Subtract" fill-rule="evenodd" clip-rule="evenodd" d="M1 4C1 2.89543 1.89543 2 3 2H13C14.1046 2 15 2.89543 15 4V12C15 13.1046 14.1046 14 13 14H3C1.89543 14 1 13.1046 1 12V4ZM3 11C2.63571 11 2.29417 10.9026 2 10.7324V12C2 12.5523 2.44772 13 3 13H13C13.5523 13 14 12.5523 14 12V10.7324C13.7058 10.9026 13.3643 11 13 11H3ZM8.9834 10V4.21387H11.1221V2.89062H5.17969V4.21387H7.26953V10H8.9834Z" fill="var(--fill-0, #00A91B)"/>
</g>
</svg>
