<svg preserveAspectRatio="none" width="100%" height="100%" overflow="visible" style="display: block;" viewBox="0 0 16 16" fill="none" xmlns="http://www.w3.org/2000/svg">
<g id="DarkTheme/16/TextBox">
<g id="Union">
<path d="M4.52581 4.34202C4.61313 4.08005 4.89629 3.93847 5.15826 4.02579L5.70958 4.20957C6.22275 4.38062 6.77755 4.38062 7.29072 4.20957L7.84204 4.02579C8.10401 3.93847 8.38717 4.08005 8.47449 4.34202C8.56182 4.60399 8.42023 4.88715 8.15826 4.97448L7.60695 5.15825C7.40827 5.22447 7.20514 5.27239 7.00001 5.30198V10.6982C7.20509 10.7278 7.40818 10.7757 7.60681 10.8419L8.15813 11.0257C8.4201 11.113 8.56168 11.3961 8.47435 11.6581C8.38703 11.9201 8.10387 12.0617 7.8419 11.9743L7.29058 11.7906C6.77742 11.6195 6.22261 11.6195 5.70944 11.7906L5.15813 11.9743C4.89616 12.0617 4.613 11.9201 4.52567 11.6581C4.43835 11.3961 4.57993 11.113 4.8419 11.0257L5.39322 10.8419C5.59185 10.7757 5.79493 10.7278 6.00001 10.6982V5.30194C5.79498 5.27234 5.59194 5.22445 5.39335 5.15825L4.84204 4.97448C4.58006 4.88715 4.43848 4.60399 4.52581 4.34202Z" fill="var(--fill-0, #4ECC5A)"/>
<path fill-rule="evenodd" clip-rule="evenodd" d="M1 1H4V2H12V1H15V4H14V12H15V15H12V14H4V15H1V12H2V4H1V1ZM3 4V12H4V13H12V12H13V4H12V3H4V4H3Z" fill="var(--fill-0, #4ECC5A)"/>
</g>
</g>
</svg>
