<svg preserveAspectRatio="none" width="100%" height="100%" overflow="visible" style="display: block;" viewBox="0 0 16 16" fill="none" xmlns="http://www.w3.org/2000/svg">
<g id="DarkTheme/16/TextLabel">
<path id="Subtract" d="M11.9082 3.42676H8.01465V10.4854L7.20703 11.293C6.81661 11.6835 6.81661 12.3165 7.20703 12.707L8.01465 13.5146V14H5.1582V3.42676H1.34375V1.20312H11.9082V3.42676Z" fill="var(--fill-0, #2BB1FF)"/>
<path id="Subtract_2" d="M14 11.5859C14 11.8511 13.8945 12.1055 13.707 12.293L11.3535 14.6465C11.1583 14.8417 10.8418 14.8417 10.6465 14.6465L8.35352 12.3535C8.15825 12.1583 8.15825 11.8417 8.35352 11.6465L10.707 9.29297C10.8945 9.10545 11.1489 9.00002 11.4141 9H14V11.5859ZM12.251 9.7998C11.7264 9.7998 11.3009 10.2254 11.3008 10.75C11.3009 11.2746 11.7264 11.7002 12.251 11.7002C12.7755 11.7001 13.2011 11.2745 13.2012 10.75C13.201 10.2255 12.7755 9.79991 12.251 9.7998Z" fill="var(--fill-0, white)"/>
</g>
</svg>
