<svg preserveAspectRatio="none" width="100%" height="100%" overflow="visible" style="display: block;" viewBox="0 0 16 16" fill="none" xmlns="http://www.w3.org/2000/svg">
<g id="DarkTheme/16/ViewportFrame">
<g id="Union">
<path d="M2.64645 3.64645C2.84171 3.45118 3.15829 3.45118 3.35355 3.64645L5.35355 5.64645C5.54882 5.84171 5.54882 6.15829 5.35355 6.35355C5.15829 6.54882 4.84171 6.54882 4.64645 6.35355L2.64645 4.35355C2.45118 4.15829 2.45118 3.84171 2.64645 3.64645Z" fill="var(--fill-0, #EF7A36)"/>
<path d="M5.35355 10.3536C5.54882 10.1583 5.54882 9.84171 5.35355 9.64645C5.15829 9.45118 4.84171 9.45118 4.64645 9.64645L2.64645 11.6464C2.45118 11.8417 2.45118 12.1583 2.64645 12.3536C2.84171 12.5488 3.15829 12.5488 3.35355 12.3536L5.35355 10.3536Z" fill="var(--fill-0, #EF7A36)"/>
<path d="M13.3536 3.64645C13.5488 3.84171 13.5488 4.15829 13.3536 4.35355L11.3536 6.35355C11.1583 6.54882 10.8417 6.54882 10.6464 6.35355C10.4512 6.15829 10.4512 5.84171 10.6464 5.64645L12.6464 3.64645C12.8417 3.45118 13.1583 3.45118 13.3536 3.64645Z" fill="var(--fill-0, #EF7A36)"/>
<path d="M11.3536 9.64645C11.1583 9.45118 10.8417 9.45118 10.6464 9.64645C10.4512 9.84171 10.4512 10.1583 10.6464 10.3536L12.6464 12.3536C12.8417 12.5488 13.1583 12.5488 13.3536 12.3536C13.5488 12.1583 13.5488 11.8417 13.3536 11.6464L11.3536 9.64645Z" fill="var(--fill-0, #EF7A36)"/>
<path fill-rule="evenodd" clip-rule="evenodd" d="M2 2C1.44772 2 1 2.44772 1 3V13C1 13.5523 1.44772 14 2 14H14C14.5523 14 15 13.5523 15 13V3C15 2.44772 14.5523 2 14 2H2ZM14 3H2V13H14V3Z" fill="var(--fill-0, #EF7A36)"/>
</g>
</g>
</svg>
