<svg width="16" height="16" viewBox="0 0 16 16" fill="none" xmlns="http://www.w3.org/2000/svg">
<g id="LightTheme/16/Weld">
<path id="Union" d="M8.35566 2.39065C9.81612 0.918649 12.1843 0.918573 13.6447 2.39065C15.105 3.8627 15.1049 6.2496 13.6447 7.72171L10.9396 10.4483C9.64266 11.7556 7.63023 11.9014 6.17304 10.8867L3.06073 14C2.76787 14.2929 2.29309 14.2928 2.00019 14C1.70729 13.7071 1.70729 13.2324 2.00019 12.9395L5.13691 9.80178C4.21785 8.34409 4.38857 6.3893 5.65058 5.11721L8.35566 2.39065ZM12.7639 3.27835C11.7896 2.29633 10.2098 2.29633 9.23554 3.27835L6.53144 6.00491C5.7583 6.78422 5.59994 7.94684 6.0539 8.88479L7.50019 7.43948C7.79309 7.14666 8.26787 7.14661 8.56073 7.43948C8.85357 7.73235 8.85354 8.20714 8.56073 8.50003L7.08222 9.97757C8.03173 10.5113 9.25195 10.3738 10.0588 9.56057L12.7639 6.83401C13.738 5.85198 13.7381 4.26032 12.7639 3.27835Z" fill="#5E5E5E"/>
</g>
</svg>
