<svg preserveAspectRatio="none" width="100%" height="100%" overflow="visible" style="display: block;" viewBox="0 0 16 16" fill="none" xmlns="http://www.w3.org/2000/svg">
<g id="DarkTheme/16/Workspace">
<path id="Ellipse 1042" d="M13.4956 8.02312C13.4956 11.0453 11.0456 13.4952 8.02349 13.4952C5.00133 13.4952 2.55139 11.0453 2.55139 8.02312C2.55139 5.00097 5.00133 2.55103 8.02349 2.55103C11.0456 2.55103 13.4956 5.00097 13.4956 8.02312Z" fill="var(--fill-0, #1063C5)"/>
<path id="Union" d="M7.80127 13.9565C7.76024 14.2549 7.49781 14.4754 7.1991 14.437L7.14279 14.4295C3.60444 13.943 1.13045 10.6802 1.61697 7.14181C2.10349 3.60347 5.36629 1.12947 8.90463 1.61599C12.443 2.10251 14.917 5.36531 14.4305 8.90366L14.4225 8.9599C14.3789 9.25791 14.0957 9.45107 13.7973 9.41004L13.7371 9.40177C13.4257 9.35895 13.2228 9.05487 13.2656 8.74349C13.272 8.69707 13.2777 8.65071 13.2829 8.60441C12.7158 8.44992 12.2118 8.11199 11.8529 7.63856C11.5745 7.27143 11.1617 7.02992 10.7052 6.96716L10.027 6.87391C9.73392 6.83361 9.52897 6.56334 9.56925 6.27023C9.63083 5.82206 9.97231 5.46359 10.417 5.38033L10.7771 5.31291C11.2726 5.22014 11.7192 4.96235 12.0465 4.5855C11.2337 3.63359 10.082 2.96477 8.74447 2.78085C6.30879 2.44595 4.03269 3.82562 3.13468 5.99595C3.32921 5.97771 3.52888 5.98136 3.7308 6.00913L5.65246 6.27336C6.0063 6.32201 6.2537 6.64835 6.20505 7.00219C6.1564 7.35598 5.83014 7.60339 5.47636 7.55475C5.12259 7.5061 4.79635 7.75345 4.74771 8.10722C4.69907 8.46099 4.94642 8.78721 5.30019 8.83585L8.37976 9.25929C8.8017 9.31731 9.09672 9.70639 9.0387 10.1283C8.99575 10.4407 8.76692 10.6955 8.46091 10.7717L7.99532 10.8875C6.88183 11.1646 5.83243 11.6419 4.89679 12.2924C5.58294 12.7958 6.40065 13.1406 7.30296 13.2646C7.61434 13.3074 7.85236 13.5849 7.80954 13.8963L7.80127 13.9565Z" fill="var(--fill-0, #33DE59)"/>
<path id="Subtract" d="M6.53101 2.95413C6.59835 2.93405 6.66606 2.9153 6.73411 2.89791C6.92812 3.35781 6.96266 3.87234 6.82755 4.35799L6.72936 4.71095C6.60811 5.14678 6.77938 5.6113 7.15453 5.8641C7.39989 6.02944 7.73282 5.96459 7.89819 5.71925L8.2808 5.15158C8.53831 4.76952 8.93704 4.50541 9.38928 4.41735C9.97246 4.30378 10.4979 4.00033 10.8865 3.5594C10.9258 3.58442 10.9649 3.61003 11.0038 3.63622C11.2644 3.81189 11.6268 3.76373 11.8025 3.50309L11.8364 3.4527C12.0048 3.20296 11.9562 2.86362 11.7079 2.69315L11.6609 2.66119C10.0948 1.60562 8.23303 1.32706 6.53101 1.73684V2.95413Z" fill="var(--fill-0, white)"/>
<path id="Union_2" d="M1.36938 7.1076C1.87477 3.43254 5.26363 0.863026 8.93872 1.36835C12.6138 1.87368 15.1833 5.26255 14.678 8.93768C14.1726 12.6128 10.7838 15.1823 7.10864 14.6769C3.43359 14.1715 0.864064 10.7827 1.36938 7.1076ZM8.74438 2.7785C5.84846 2.38055 3.17773 4.406 2.77954 7.30194C2.38151 10.1979 4.40699 12.8686 7.30298 13.2668C10.199 13.6648 12.8696 11.6393 13.2678 8.74335C13.6658 5.84742 11.6403 3.17669 8.74438 2.7785Z" fill="var(--fill-0, #5288F1)"/>
</g>
</svg>
